{
  "asset": {
    "version": "2.0",
    "generator": "convert_wall_torch.py"
  },
  "scene": 0,
  "scenes": [
    {
      "nodes": [
        0
      ]
    }
  ],
  "nodes": [
    {
      "mesh": 0,
      "name": "Wall torch"
    }
  ],
  "meshes": [
    {
      "primitives": [
        {
          "attributes": {
            "POSITION": 0
          },
          "indices": 1,
          "material": 0
        }
      ]
    }
  ],
  "materials": [
    {
      "name": "Dark iron and wood",
      "pbrMetallicRoughness": {
        "baseColorFactor": [
          0.16,
          0.07,
          0.025,
          1.0
        ],
        "metallicFactor": 0.3,
        "roughnessFactor": 0.72
      }
    }
  ],
  "buffers": [
    {
      "byteLength": 1332,
      "uri": "data:application/octet-stream;base64,"
    }
  ],
  "bufferViews": [
    {
      "buffer": 0,
      "byteOffset": 0,
      "byteLength": 696,
      "target": 34962
    },
    {
      "buffer": 0,
      "byteOffset": 696,
      "byteLength": 636,
      "target": 34963
    }
  ],
  "accessors": [
    {
      "bufferView": 0,
      "componentType": 5126,
      "count": 58,
      "type": "VEC3",
      "min": [
        -0.04829,
        1.14289,
        -0.17334
      ],
      "max": [
        0.04829,
        1.5223,
        0.04832
      ]
    },
    {
      "bufferView": 1,
      "componentType": 5123,
      "count": 318,
      "type": "SCALAR",
      "min": [
        0
      ],
      "max": [
        57
      ]
    }
  ]
}
