{
  "asset": {
    "version": "2.0",
    "generator": "Gameport detailed vegetation"
  },
  "scene": 0,
  "scenes": [
    {
      "nodes": [
        0
      ]
    }
  ],
  "nodes": [
    {
      "mesh": 0,
      "name": "fern_large_lod2"
    }
  ],
  "meshes": [
    {
      "name": "fern_large_lod2",
      "primitives": [
        {
          "material": 0,
          "attributes": {
            "POSITION": 0,
            "NORMAL": 1,
            "TEXCOORD_0": 2,
            "TANGENT": 3
          },
          "indices": 4
        }
      ]
    }
  ],
  "materials": [
    {
      "name": "Fern fronds",
      "pbrMetallicRoughness": {
        "baseColorFactor": [
          1,
          1,
          1,
          1
        ],
        "metallicFactor": 0,
        "roughnessFactor": 1,
        "baseColorTexture": {
          "index": 0
        },
        "metallicRoughnessTexture": {
          "index": 1
        }
      },
      "doubleSided": false,
      "normalTexture": {
        "index": 2,
        "scale": 0.55
      },
      "occlusionTexture": {
        "index": 1
      }
    }
  ],
  "images": [
    {
      "uri": "../textures/fern_albedo.png"
    },
    {
      "uri": "../textures/fern_orm.png"
    },
    {
      "uri": "../textures/fern_normal.png"
    }
  ],
  "textures": [
    {
      "source": 0,
      "sampler": 0
    },
    {
      "source": 1,
      "sampler": 0
    },
    {
      "source": 2,
      "sampler": 0
    }
  ],
  "samplers": [
    {
      "magFilter": 9729,
      "minFilter": 9987,
      "wrapS": 10497,
      "wrapT": 10497
    }
  ],
  "accessors": [
    {
      "bufferView": 0,
      "componentType": 5126,
      "count": 25861,
      "type": "VEC3",
      "min": [
        -0.8515936732292175,
        0.019966818392276764,
        -0.8510916233062744
      ],
      "max": [
        0.9494335651397705,
        0.4712201654911041,
        0.7041022181510925
      ]
    },
    {
      "bufferView": 1,
      "componentType": 5126,
      "count": 25861,
      "type": "VEC3",
      "min": [
        -0.999987006187439,
        -0.999804675579071,
        -0.9999862909317017
      ],
      "max": [
        0.9995364546775818,
        0.999804675579071,
        0.9999848008155823
      ]
    },
    {
      "bufferView": 2,
      "componentType": 5126,
      "count": 25861,
      "type": "VEC2"
    },
    {
      "bufferView": 3,
      "componentType": 5126,
      "count": 25861,
      "type": "VEC4"
    },
    {
      "bufferView": 4,
      "componentType": 5125,
      "count": 85932,
      "type": "SCALAR"
    }
  ],
  "bufferViews": [
    {
      "buffer": 0,
      "byteOffset": 0,
      "byteLength": 310332
    },
    {
      "buffer": 0,
      "byteOffset": 310332,
      "byteLength": 310332
    },
    {
      "buffer": 0,
      "byteOffset": 620664,
      "byteLength": 206888
    },
    {
      "buffer": 0,
      "byteOffset": 827552,
      "byteLength": 413776
    },
    {
      "buffer": 0,
      "byteOffset": 1241328,
      "byteLength": 343728
    }
  ],
  "buffers": [
    {
      "uri": "fern_large_lod2.bin",
      "byteLength": 1585056
    }
  ]
}
