{
  "asset": {
    "version": "2.0",
    "generator": "Gameport detailed vegetation"
  },
  "scene": 0,
  "scenes": [
    {
      "nodes": [
        0
      ]
    }
  ],
  "nodes": [
    {
      "mesh": 0,
      "name": "fern_small_lod0"
    }
  ],
  "meshes": [
    {
      "name": "fern_small_lod0",
      "primitives": [
        {
          "material": 0,
          "attributes": {
            "POSITION": 0,
            "NORMAL": 1,
            "TEXCOORD_0": 2,
            "TANGENT": 3
          },
          "indices": 4
        }
      ]
    }
  ],
  "materials": [
    {
      "name": "Fern fronds",
      "pbrMetallicRoughness": {
        "baseColorFactor": [
          1,
          1,
          1,
          1
        ],
        "metallicFactor": 0,
        "roughnessFactor": 1,
        "baseColorTexture": {
          "index": 0
        },
        "metallicRoughnessTexture": {
          "index": 1
        }
      },
      "doubleSided": false,
      "normalTexture": {
        "index": 2,
        "scale": 0.55
      },
      "occlusionTexture": {
        "index": 1
      }
    }
  ],
  "images": [
    {
      "uri": "../textures/fern_albedo.png"
    },
    {
      "uri": "../textures/fern_orm.png"
    },
    {
      "uri": "../textures/fern_normal.png"
    }
  ],
  "textures": [
    {
      "source": 0,
      "sampler": 0
    },
    {
      "source": 1,
      "sampler": 0
    },
    {
      "source": 2,
      "sampler": 0
    }
  ],
  "samplers": [
    {
      "magFilter": 9729,
      "minFilter": 9987,
      "wrapS": 10497,
      "wrapT": 10497
    }
  ],
  "accessors": [
    {
      "bufferView": 0,
      "componentType": 5126,
      "count": 134959,
      "type": "VEC3",
      "min": [
        -0.9199270009994507,
        0.019248291850090027,
        -0.8763267993927002
      ],
      "max": [
        0.7740300297737122,
        0.4990721046924591,
        0.5781469941139221
      ]
    },
    {
      "bufferView": 1,
      "componentType": 5126,
      "count": 134959,
      "type": "VEC3",
      "min": [
        -0.9999894499778748,
        -0.9999987483024597,
        -0.99998539686203
      ],
      "max": [
        0.9999702572822571,
        0.9999987483024597,
        0.99998539686203
      ]
    },
    {
      "bufferView": 2,
      "componentType": 5126,
      "count": 134959,
      "type": "VEC2"
    },
    {
      "bufferView": 3,
      "componentType": 5126,
      "count": 134959,
      "type": "VEC4"
    },
    {
      "bufferView": 4,
      "componentType": 5125,
      "count": 473616,
      "type": "SCALAR"
    }
  ],
  "bufferViews": [
    {
      "buffer": 0,
      "byteOffset": 0,
      "byteLength": 1619508
    },
    {
      "buffer": 0,
      "byteOffset": 1619508,
      "byteLength": 1619508
    },
    {
      "buffer": 0,
      "byteOffset": 3239016,
      "byteLength": 1079672
    },
    {
      "buffer": 0,
      "byteOffset": 4318688,
      "byteLength": 2159344
    },
    {
      "buffer": 0,
      "byteOffset": 6478032,
      "byteLength": 1894464
    }
  ],
  "buffers": [
    {
      "uri": "fern_small_lod0.bin",
      "byteLength": 8372496
    }
  ]
}
