{
  "asset": {
    "version": "2.0",
    "generator": "Gameport detailed vegetation"
  },
  "scene": 0,
  "scenes": [
    {
      "nodes": [
        0
      ]
    }
  ],
  "nodes": [
    {
      "mesh": 0,
      "name": "fern_large_lod1"
    }
  ],
  "meshes": [
    {
      "name": "fern_large_lod1",
      "primitives": [
        {
          "material": 0,
          "attributes": {
            "POSITION": 0,
            "NORMAL": 1,
            "TEXCOORD_0": 2,
            "TANGENT": 3
          },
          "indices": 4
        }
      ]
    }
  ],
  "materials": [
    {
      "name": "Fern fronds",
      "pbrMetallicRoughness": {
        "baseColorFactor": [
          1,
          1,
          1,
          1
        ],
        "metallicFactor": 0,
        "roughnessFactor": 1,
        "baseColorTexture": {
          "index": 0
        },
        "metallicRoughnessTexture": {
          "index": 1
        }
      },
      "doubleSided": false,
      "normalTexture": {
        "index": 2,
        "scale": 0.55
      },
      "occlusionTexture": {
        "index": 1
      }
    }
  ],
  "images": [
    {
      "uri": "../textures/fern_albedo.png"
    },
    {
      "uri": "../textures/fern_orm.png"
    },
    {
      "uri": "../textures/fern_normal.png"
    }
  ],
  "textures": [
    {
      "source": 0,
      "sampler": 0
    },
    {
      "source": 1,
      "sampler": 0
    },
    {
      "source": 2,
      "sampler": 0
    }
  ],
  "samplers": [
    {
      "magFilter": 9729,
      "minFilter": 9987,
      "wrapS": 10497,
      "wrapT": 10497
    }
  ],
  "accessors": [
    {
      "bufferView": 0,
      "componentType": 5126,
      "count": 43285,
      "type": "VEC3",
      "min": [
        -0.8515936732292175,
        0.019966818392276764,
        -0.8510916233062744
      ],
      "max": [
        0.9494335651397705,
        0.4809142053127289,
        0.7041022181510925
      ]
    },
    {
      "bufferView": 1,
      "componentType": 5126,
      "count": 43285,
      "type": "VEC3",
      "min": [
        -0.999987006187439,
        -0.9999415874481201,
        -0.9999862909317017
      ],
      "max": [
        0.9999818801879883,
        0.9999415874481201,
        0.9999848008155823
      ]
    },
    {
      "bufferView": 2,
      "componentType": 5126,
      "count": 43285,
      "type": "VEC2"
    },
    {
      "bufferView": 3,
      "componentType": 5126,
      "count": 43285,
      "type": "VEC4"
    },
    {
      "bufferView": 4,
      "componentType": 5125,
      "count": 142956,
      "type": "SCALAR"
    }
  ],
  "bufferViews": [
    {
      "buffer": 0,
      "byteOffset": 0,
      "byteLength": 519420
    },
    {
      "buffer": 0,
      "byteOffset": 519420,
      "byteLength": 519420
    },
    {
      "buffer": 0,
      "byteOffset": 1038840,
      "byteLength": 346280
    },
    {
      "buffer": 0,
      "byteOffset": 1385120,
      "byteLength": 692560
    },
    {
      "buffer": 0,
      "byteOffset": 2077680,
      "byteLength": 571824
    }
  ],
  "buffers": [
    {
      "uri": "fern_large_lod1.bin",
      "byteLength": 2649504
    }
  ]
}
