{
  "asset": {
    "version": "2.0",
    "generator": "Gameport detailed vegetation"
  },
  "scene": 0,
  "scenes": [
    {
      "nodes": [
        0
      ]
    }
  ],
  "nodes": [
    {
      "mesh": 0,
      "name": "grass_dry_lod0"
    }
  ],
  "meshes": [
    {
      "name": "grass_dry_lod0",
      "primitives": [
        {
          "material": 0,
          "attributes": {
            "POSITION": 0,
            "NORMAL": 1,
            "TEXCOORD_0": 2,
            "TANGENT": 3
          },
          "indices": 4
        }
      ]
    }
  ],
  "materials": [
    {
      "name": "Dry grass",
      "pbrMetallicRoughness": {
        "baseColorFactor": [
          1,
          1,
          1,
          1
        ],
        "metallicFactor": 0,
        "roughnessFactor": 1,
        "baseColorTexture": {
          "index": 0
        },
        "metallicRoughnessTexture": {
          "index": 1
        }
      },
      "doubleSided": false,
      "normalTexture": {
        "index": 2,
        "scale": 0.55
      },
      "occlusionTexture": {
        "index": 1
      }
    }
  ],
  "images": [
    {
      "uri": "../textures/dry_grass_albedo.png"
    },
    {
      "uri": "../textures/dry_grass_orm.png"
    },
    {
      "uri": "../textures/dry_grass_normal.png"
    }
  ],
  "textures": [
    {
      "source": 0,
      "sampler": 0
    },
    {
      "source": 1,
      "sampler": 0
    },
    {
      "source": 2,
      "sampler": 0
    }
  ],
  "samplers": [
    {
      "magFilter": 9729,
      "minFilter": 9987,
      "wrapS": 10497,
      "wrapT": 10497
    }
  ],
  "accessors": [
    {
      "bufferView": 0,
      "componentType": 5126,
      "count": 10613,
      "type": "VEC3",
      "min": [
        -0.8192753791809082,
        -0.0034228863660246134,
        -0.7888092398643494
      ],
      "max": [
        0.8509950041770935,
        0.9026836156845093,
        0.7733911871910095
      ]
    },
    {
      "bufferView": 1,
      "componentType": 5126,
      "count": 10613,
      "type": "VEC3",
      "min": [
        -0.9999746084213257,
        -0.9813202023506165,
        -0.9999140501022339
      ],
      "max": [
        0.9999746084213257,
        0.9813202023506165,
        0.9999140501022339
      ]
    },
    {
      "bufferView": 2,
      "componentType": 5126,
      "count": 10613,
      "type": "VEC2"
    },
    {
      "bufferView": 3,
      "componentType": 5126,
      "count": 10613,
      "type": "VEC4"
    },
    {
      "bufferView": 4,
      "componentType": 5125,
      "count": 36060,
      "type": "SCALAR"
    }
  ],
  "bufferViews": [
    {
      "buffer": 0,
      "byteOffset": 0,
      "byteLength": 127356
    },
    {
      "buffer": 0,
      "byteOffset": 127356,
      "byteLength": 127356
    },
    {
      "buffer": 0,
      "byteOffset": 254712,
      "byteLength": 84904
    },
    {
      "buffer": 0,
      "byteOffset": 339616,
      "byteLength": 169808
    },
    {
      "buffer": 0,
      "byteOffset": 509424,
      "byteLength": 144240
    }
  ],
  "buffers": [
    {
      "uri": "grass_dry_lod0.bin",
      "byteLength": 653664
    }
  ]
}
