{
  "asset": {
    "version": "2.0",
    "generator": "Gameport detailed vegetation"
  },
  "scene": 0,
  "scenes": [
    {
      "nodes": [
        0
      ]
    }
  ],
  "nodes": [
    {
      "mesh": 0,
      "name": "grass_meadow_b_lod1"
    }
  ],
  "meshes": [
    {
      "name": "grass_meadow_b_lod1",
      "primitives": [
        {
          "material": 0,
          "attributes": {
            "POSITION": 0,
            "NORMAL": 1,
            "TEXCOORD_0": 2,
            "TANGENT": 3
          },
          "indices": 4
        }
      ]
    }
  ],
  "materials": [
    {
      "name": "Meadow grass",
      "pbrMetallicRoughness": {
        "baseColorFactor": [
          1,
          1,
          1,
          1
        ],
        "metallicFactor": 0,
        "roughnessFactor": 1,
        "baseColorTexture": {
          "index": 0
        },
        "metallicRoughnessTexture": {
          "index": 1
        }
      },
      "doubleSided": false,
      "normalTexture": {
        "index": 2,
        "scale": 0.55
      },
      "occlusionTexture": {
        "index": 1
      }
    }
  ],
  "images": [
    {
      "uri": "../textures/grass_albedo.png"
    },
    {
      "uri": "../textures/grass_orm.png"
    },
    {
      "uri": "../textures/grass_normal.png"
    }
  ],
  "textures": [
    {
      "source": 0,
      "sampler": 0
    },
    {
      "source": 1,
      "sampler": 0
    },
    {
      "source": 2,
      "sampler": 0
    }
  ],
  "samplers": [
    {
      "magFilter": 9729,
      "minFilter": 9987,
      "wrapS": 10497,
      "wrapT": 10497
    }
  ],
  "accessors": [
    {
      "bufferView": 0,
      "componentType": 5126,
      "count": 2400,
      "type": "VEC3",
      "min": [
        -0.6890801787376404,
        -0.0042191436514258385,
        -0.6824268102645874
      ],
      "max": [
        0.6777904033660889,
        0.7674000859260559,
        0.8595165014266968
      ]
    },
    {
      "bufferView": 1,
      "componentType": 5126,
      "count": 2400,
      "type": "VEC3",
      "min": [
        -0.9992730021476746,
        -0.8832278251647949,
        -0.9982393980026245
      ],
      "max": [
        0.9992730021476746,
        0.8832278251647949,
        0.9982393980026245
      ]
    },
    {
      "bufferView": 2,
      "componentType": 5126,
      "count": 2400,
      "type": "VEC2"
    },
    {
      "bufferView": 3,
      "componentType": 5126,
      "count": 2400,
      "type": "VEC4"
    },
    {
      "bufferView": 4,
      "componentType": 5125,
      "count": 7680,
      "type": "SCALAR"
    }
  ],
  "bufferViews": [
    {
      "buffer": 0,
      "byteOffset": 0,
      "byteLength": 28800
    },
    {
      "buffer": 0,
      "byteOffset": 28800,
      "byteLength": 28800
    },
    {
      "buffer": 0,
      "byteOffset": 57600,
      "byteLength": 19200
    },
    {
      "buffer": 0,
      "byteOffset": 76800,
      "byteLength": 38400
    },
    {
      "buffer": 0,
      "byteOffset": 115200,
      "byteLength": 30720
    }
  ],
  "buffers": [
    {
      "uri": "grass_meadow_b_lod1.bin",
      "byteLength": 145920
    }
  ]
}
