{
  "asset": {
    "version": "2.0",
    "generator": "Gameport detailed vegetation"
  },
  "scene": 0,
  "scenes": [
    {
      "nodes": [
        0
      ]
    }
  ],
  "nodes": [
    {
      "mesh": 0,
      "name": "grass_meadow_b_lod2"
    }
  ],
  "meshes": [
    {
      "name": "grass_meadow_b_lod2",
      "primitives": [
        {
          "material": 0,
          "attributes": {
            "POSITION": 0,
            "NORMAL": 1,
            "TEXCOORD_0": 2,
            "TANGENT": 3
          },
          "indices": 4
        }
      ]
    }
  ],
  "materials": [
    {
      "name": "Meadow grass",
      "pbrMetallicRoughness": {
        "baseColorFactor": [
          1,
          1,
          1,
          1
        ],
        "metallicFactor": 0,
        "roughnessFactor": 1,
        "baseColorTexture": {
          "index": 0
        },
        "metallicRoughnessTexture": {
          "index": 1
        }
      },
      "doubleSided": false,
      "normalTexture": {
        "index": 2,
        "scale": 0.55
      },
      "occlusionTexture": {
        "index": 1
      }
    }
  ],
  "images": [
    {
      "uri": "../textures/grass_albedo.png"
    },
    {
      "uri": "../textures/grass_orm.png"
    },
    {
      "uri": "../textures/grass_normal.png"
    }
  ],
  "textures": [
    {
      "source": 0,
      "sampler": 0
    },
    {
      "source": 1,
      "sampler": 0
    },
    {
      "source": 2,
      "sampler": 0
    }
  ],
  "samplers": [
    {
      "magFilter": 9729,
      "minFilter": 9987,
      "wrapS": 10497,
      "wrapT": 10497
    }
  ],
  "accessors": [
    {
      "bufferView": 0,
      "componentType": 5126,
      "count": 648,
      "type": "VEC3",
      "min": [
        -0.8467881083488464,
        -0.004504714161157608,
        -0.6887113451957703
      ],
      "max": [
        0.6339338421821594,
        1.0044276714324951,
        0.9189678430557251
      ]
    },
    {
      "bufferView": 1,
      "componentType": 5126,
      "count": 648,
      "type": "VEC3",
      "min": [
        -0.9981818795204163,
        -0.8692552447319031,
        -0.9966749548912048
      ],
      "max": [
        0.9981818795204163,
        0.8692552447319031,
        0.9966749548912048
      ]
    },
    {
      "bufferView": 2,
      "componentType": 5126,
      "count": 648,
      "type": "VEC2"
    },
    {
      "bufferView": 3,
      "componentType": 5126,
      "count": 648,
      "type": "VEC4"
    },
    {
      "bufferView": 4,
      "componentType": 5125,
      "count": 1944,
      "type": "SCALAR"
    }
  ],
  "bufferViews": [
    {
      "buffer": 0,
      "byteOffset": 0,
      "byteLength": 7776
    },
    {
      "buffer": 0,
      "byteOffset": 7776,
      "byteLength": 7776
    },
    {
      "buffer": 0,
      "byteOffset": 15552,
      "byteLength": 5184
    },
    {
      "buffer": 0,
      "byteOffset": 20736,
      "byteLength": 10368
    },
    {
      "buffer": 0,
      "byteOffset": 31104,
      "byteLength": 7776
    }
  ],
  "buffers": [
    {
      "uri": "grass_meadow_b_lod2.bin",
      "byteLength": 38880
    }
  ]
}
