{
  "asset": {
    "version": "2.0",
    "generator": "Gameport detailed vegetation"
  },
  "scene": 0,
  "scenes": [
    {
      "nodes": [
        0
      ]
    }
  ],
  "nodes": [
    {
      "mesh": 0,
      "name": "laurel_giant_lod0"
    }
  ],
  "meshes": [
    {
      "name": "laurel_giant_lod0",
      "primitives": [
        {
          "material": 0,
          "attributes": {
            "POSITION": 0,
            "NORMAL": 1,
            "TEXCOORD_0": 2,
            "TANGENT": 3
          },
          "indices": 4
        },
        {
          "material": 1,
          "attributes": {
            "POSITION": 5,
            "NORMAL": 6,
            "TEXCOORD_0": 7,
            "TANGENT": 8
          },
          "indices": 9
        },
        {
          "material": 2,
          "attributes": {
            "POSITION": 10,
            "NORMAL": 11,
            "TEXCOORD_0": 12,
            "TANGENT": 13
          },
          "indices": 14
        }
      ]
    }
  ],
  "materials": [
    {
      "name": "Scanned furrowed bark",
      "pbrMetallicRoughness": {
        "baseColorFactor": [
          1,
          1,
          1,
          1
        ],
        "metallicFactor": 0,
        "roughnessFactor": 1,
        "baseColorTexture": {
          "index": 0
        },
        "metallicRoughnessTexture": {
          "index": 1
        }
      },
      "doubleSided": false,
      "normalTexture": {
        "index": 2,
        "scale": 0.85
      },
      "occlusionTexture": {
        "index": 1
      }
    },
    {
      "name": "Mature broadleaf",
      "pbrMetallicRoughness": {
        "baseColorFactor": [
          1,
          1,
          1,
          1
        ],
        "metallicFactor": 0,
        "roughnessFactor": 1,
        "baseColorTexture": {
          "index": 3
        },
        "metallicRoughnessTexture": {
          "index": 4
        }
      },
      "doubleSided": false,
      "normalTexture": {
        "index": 5,
        "scale": 0.55
      },
      "occlusionTexture": {
        "index": 4
      }
    },
    {
      "name": "Sunlit young broadleaf",
      "pbrMetallicRoughness": {
        "baseColorFactor": [
          1.15,
          1.1,
          0.85,
          1
        ],
        "metallicFactor": 0,
        "roughnessFactor": 1,
        "baseColorTexture": {
          "index": 6
        },
        "metallicRoughnessTexture": {
          "index": 7
        }
      },
      "doubleSided": false,
      "normalTexture": {
        "index": 8,
        "scale": 0.55
      },
      "occlusionTexture": {
        "index": 7
      }
    }
  ],
  "images": [
    {
      "uri": "../textures/broadleaf_bark_albedo.jpg"
    },
    {
      "uri": "../textures/broadleaf_bark_orm.jpg"
    },
    {
      "uri": "../textures/broadleaf_bark_normal.png"
    },
    {
      "uri": "../textures/leaf_albedo.png"
    },
    {
      "uri": "../textures/leaf_orm.png"
    },
    {
      "uri": "../textures/leaf_normal.png"
    },
    {
      "uri": "../textures/leaf_albedo.png"
    },
    {
      "uri": "../textures/leaf_orm.png"
    },
    {
      "uri": "../textures/leaf_normal.png"
    }
  ],
  "textures": [
    {
      "source": 0,
      "sampler": 0
    },
    {
      "source": 1,
      "sampler": 0
    },
    {
      "source": 2,
      "sampler": 0
    },
    {
      "source": 3,
      "sampler": 0
    },
    {
      "source": 4,
      "sampler": 0
    },
    {
      "source": 5,
      "sampler": 0
    },
    {
      "source": 6,
      "sampler": 0
    },
    {
      "source": 7,
      "sampler": 0
    },
    {
      "source": 8,
      "sampler": 0
    }
  ],
  "samplers": [
    {
      "magFilter": 9729,
      "minFilter": 9987,
      "wrapS": 10497,
      "wrapT": 10497
    }
  ],
  "accessors": [
    {
      "bufferView": 0,
      "componentType": 5126,
      "count": 309032,
      "type": "VEC3",
      "min": [
        -9.645781517028809,
        -0.11132664978504181,
        -10.148418426513672
      ],
      "max": [
        9.423385620117188,
        18.04205322265625,
        9.462400436401367
      ]
    },
    {
      "bufferView": 1,
      "componentType": 5126,
      "count": 309032,
      "type": "VEC3",
      "min": [
        -1.0,
        -1.0,
        -0.9999993443489075
      ],
      "max": [
        1.0,
        1.0,
        0.9999996423721313
      ]
    },
    {
      "bufferView": 2,
      "componentType": 5126,
      "count": 309032,
      "type": "VEC2"
    },
    {
      "bufferView": 3,
      "componentType": 5126,
      "count": 309032,
      "type": "VEC4"
    },
    {
      "bufferView": 4,
      "componentType": 5125,
      "count": 1338240,
      "type": "SCALAR"
    },
    {
      "bufferView": 5,
      "componentType": 5126,
      "count": 2056320,
      "type": "VEC3",
      "min": [
        -9.728404998779297,
        3.8772873878479004,
        -10.292709350585938
      ],
      "max": [
        9.726399421691895,
        18.131284713745117,
        9.575078964233398
      ]
    },
    {
      "bufferView": 6,
      "componentType": 5126,
      "count": 2056320,
      "type": "VEC3",
      "min": [
        -0.9999991655349731,
        -0.9999997019767761,
        -0.9999999403953552
      ],
      "max": [
        0.9999991655349731,
        0.9999997019767761,
        0.9999999403953552
      ]
    },
    {
      "bufferView": 7,
      "componentType": 5126,
      "count": 2056320,
      "type": "VEC2"
    },
    {
      "bufferView": 8,
      "componentType": 5126,
      "count": 2056320,
      "type": "VEC4"
    },
    {
      "bufferView": 9,
      "componentType": 5125,
      "count": 7197120,
      "type": "SCALAR"
    },
    {
      "bufferView": 10,
      "componentType": 5126,
      "count": 604800,
      "type": "VEC3",
      "min": [
        -9.8920316696167,
        3.879657030105591,
        -10.228547096252441
      ],
      "max": [
        9.537633895874023,
        18.12228775024414,
        9.68918514251709
      ]
    },
    {
      "bufferView": 11,
      "componentType": 5126,
      "count": 604800,
      "type": "VEC3",
      "min": [
        -0.9999875426292419,
        -0.9999997615814209,
        -0.9999927282333374
      ],
      "max": [
        0.9999875426292419,
        0.9999997615814209,
        0.9999927282333374
      ]
    },
    {
      "bufferView": 12,
      "componentType": 5126,
      "count": 604800,
      "type": "VEC2"
    },
    {
      "bufferView": 13,
      "componentType": 5126,
      "count": 604800,
      "type": "VEC4"
    },
    {
      "bufferView": 14,
      "componentType": 5125,
      "count": 2116800,
      "type": "SCALAR"
    }
  ],
  "bufferViews": [
    {
      "buffer": 0,
      "byteOffset": 0,
      "byteLength": 3708384
    },
    {
      "buffer": 0,
      "byteOffset": 3708384,
      "byteLength": 3708384
    },
    {
      "buffer": 0,
      "byteOffset": 7416768,
      "byteLength": 2472256
    },
    {
      "buffer": 0,
      "byteOffset": 9889024,
      "byteLength": 4944512
    },
    {
      "buffer": 0,
      "byteOffset": 14833536,
      "byteLength": 5352960
    },
    {
      "buffer": 0,
      "byteOffset": 20186496,
      "byteLength": 24675840
    },
    {
      "buffer": 0,
      "byteOffset": 44862336,
      "byteLength": 24675840
    },
    {
      "buffer": 0,
      "byteOffset": 69538176,
      "byteLength": 16450560
    },
    {
      "buffer": 0,
      "byteOffset": 85988736,
      "byteLength": 32901120
    },
    {
      "buffer": 0,
      "byteOffset": 118889856,
      "byteLength": 28788480
    },
    {
      "buffer": 0,
      "byteOffset": 147678336,
      "byteLength": 7257600
    },
    {
      "buffer": 0,
      "byteOffset": 154935936,
      "byteLength": 7257600
    },
    {
      "buffer": 0,
      "byteOffset": 162193536,
      "byteLength": 4838400
    },
    {
      "buffer": 0,
      "byteOffset": 167031936,
      "byteLength": 9676800
    },
    {
      "buffer": 0,
      "byteOffset": 176708736,
      "byteLength": 8467200
    }
  ],
  "buffers": [
    {
      "uri": "laurel_giant_lod0.bin",
      "byteLength": 185175936
    }
  ]
}
