{
  "asset": {
    "version": "2.0",
    "generator": "Gameport detailed vegetation"
  },
  "scene": 0,
  "scenes": [
    {
      "nodes": [
        0
      ]
    }
  ],
  "nodes": [
    {
      "mesh": 0,
      "name": "laurel_giant_lod1"
    }
  ],
  "meshes": [
    {
      "name": "laurel_giant_lod1",
      "primitives": [
        {
          "material": 0,
          "attributes": {
            "POSITION": 0,
            "NORMAL": 1,
            "TEXCOORD_0": 2,
            "TANGENT": 3
          },
          "indices": 4
        },
        {
          "material": 1,
          "attributes": {
            "POSITION": 5,
            "NORMAL": 6,
            "TEXCOORD_0": 7,
            "TANGENT": 8
          },
          "indices": 9
        },
        {
          "material": 2,
          "attributes": {
            "POSITION": 10,
            "NORMAL": 11,
            "TEXCOORD_0": 12,
            "TANGENT": 13
          },
          "indices": 14
        }
      ]
    }
  ],
  "materials": [
    {
      "name": "Scanned furrowed bark",
      "pbrMetallicRoughness": {
        "baseColorFactor": [
          1,
          1,
          1,
          1
        ],
        "metallicFactor": 0,
        "roughnessFactor": 1,
        "baseColorTexture": {
          "index": 0
        },
        "metallicRoughnessTexture": {
          "index": 1
        }
      },
      "doubleSided": false,
      "normalTexture": {
        "index": 2,
        "scale": 0.85
      },
      "occlusionTexture": {
        "index": 1
      }
    },
    {
      "name": "Mature broadleaf",
      "pbrMetallicRoughness": {
        "baseColorFactor": [
          1,
          1,
          1,
          1
        ],
        "metallicFactor": 0,
        "roughnessFactor": 1,
        "baseColorTexture": {
          "index": 3
        },
        "metallicRoughnessTexture": {
          "index": 4
        }
      },
      "doubleSided": false,
      "normalTexture": {
        "index": 5,
        "scale": 0.55
      },
      "occlusionTexture": {
        "index": 4
      }
    },
    {
      "name": "Sunlit young broadleaf",
      "pbrMetallicRoughness": {
        "baseColorFactor": [
          1.15,
          1.1,
          0.85,
          1
        ],
        "metallicFactor": 0,
        "roughnessFactor": 1,
        "baseColorTexture": {
          "index": 6
        },
        "metallicRoughnessTexture": {
          "index": 7
        }
      },
      "doubleSided": false,
      "normalTexture": {
        "index": 8,
        "scale": 0.55
      },
      "occlusionTexture": {
        "index": 7
      }
    }
  ],
  "images": [
    {
      "uri": "../textures/broadleaf_bark_albedo.jpg"
    },
    {
      "uri": "../textures/broadleaf_bark_orm.jpg"
    },
    {
      "uri": "../textures/broadleaf_bark_normal.png"
    },
    {
      "uri": "../textures/leaf_albedo.png"
    },
    {
      "uri": "../textures/leaf_orm.png"
    },
    {
      "uri": "../textures/leaf_normal.png"
    },
    {
      "uri": "../textures/leaf_albedo.png"
    },
    {
      "uri": "../textures/leaf_orm.png"
    },
    {
      "uri": "../textures/leaf_normal.png"
    }
  ],
  "textures": [
    {
      "source": 0,
      "sampler": 0
    },
    {
      "source": 1,
      "sampler": 0
    },
    {
      "source": 2,
      "sampler": 0
    },
    {
      "source": 3,
      "sampler": 0
    },
    {
      "source": 4,
      "sampler": 0
    },
    {
      "source": 5,
      "sampler": 0
    },
    {
      "source": 6,
      "sampler": 0
    },
    {
      "source": 7,
      "sampler": 0
    },
    {
      "source": 8,
      "sampler": 0
    }
  ],
  "samplers": [
    {
      "magFilter": 9729,
      "minFilter": 9987,
      "wrapS": 10497,
      "wrapT": 10497
    }
  ],
  "accessors": [
    {
      "bufferView": 0,
      "componentType": 5126,
      "count": 197141,
      "type": "VEC3",
      "min": [
        -9.645904541015625,
        -0.09950320422649384,
        -10.148331642150879
      ],
      "max": [
        9.42343807220459,
        18.0416259765625,
        9.462379455566406
      ]
    },
    {
      "bufferView": 1,
      "componentType": 5126,
      "count": 197141,
      "type": "VEC3",
      "min": [
        -0.9999986290931702,
        -0.9992684125900269,
        -0.9999993443489075
      ],
      "max": [
        1.0,
        0.9994842410087585,
        0.9999996423721313
      ]
    },
    {
      "bufferView": 2,
      "componentType": 5126,
      "count": 197141,
      "type": "VEC2"
    },
    {
      "bufferView": 3,
      "componentType": 5126,
      "count": 197141,
      "type": "VEC4"
    },
    {
      "bufferView": 4,
      "componentType": 5125,
      "count": 773400,
      "type": "SCALAR"
    },
    {
      "bufferView": 5,
      "componentType": 5126,
      "count": 428400,
      "type": "VEC3",
      "min": [
        -9.775092124938965,
        3.8554224967956543,
        -10.19127368927002
      ],
      "max": [
        9.740153312683105,
        18.103626251220703,
        9.578814506530762
      ]
    },
    {
      "bufferView": 6,
      "componentType": 5126,
      "count": 428400,
      "type": "VEC3",
      "min": [
        -0.9999931454658508,
        -0.9999974966049194,
        -0.9999982714653015
      ],
      "max": [
        0.9999931454658508,
        0.9999974966049194,
        0.9999982714653015
      ]
    },
    {
      "bufferView": 7,
      "componentType": 5126,
      "count": 428400,
      "type": "VEC2"
    },
    {
      "bufferView": 8,
      "componentType": 5126,
      "count": 428400,
      "type": "VEC4"
    },
    {
      "bufferView": 9,
      "componentType": 5125,
      "count": 1370880,
      "type": "SCALAR"
    },
    {
      "bufferView": 10,
      "componentType": 5126,
      "count": 126000,
      "type": "VEC3",
      "min": [
        -9.496478080749512,
        4.056539058685303,
        -10.248741149902344
      ],
      "max": [
        9.520589828491211,
        18.155019760131836,
        9.736738204956055
      ]
    },
    {
      "bufferView": 11,
      "componentType": 5126,
      "count": 126000,
      "type": "VEC3",
      "min": [
        -0.9999992847442627,
        -0.9999851584434509,
        -0.999984085559845
      ],
      "max": [
        0.9999992847442627,
        0.9999851584434509,
        0.999984085559845
      ]
    },
    {
      "bufferView": 12,
      "componentType": 5126,
      "count": 126000,
      "type": "VEC2"
    },
    {
      "bufferView": 13,
      "componentType": 5126,
      "count": 126000,
      "type": "VEC4"
    },
    {
      "bufferView": 14,
      "componentType": 5125,
      "count": 403200,
      "type": "SCALAR"
    }
  ],
  "bufferViews": [
    {
      "buffer": 0,
      "byteOffset": 0,
      "byteLength": 2365692
    },
    {
      "buffer": 0,
      "byteOffset": 2365692,
      "byteLength": 2365692
    },
    {
      "buffer": 0,
      "byteOffset": 4731384,
      "byteLength": 1577128
    },
    {
      "buffer": 0,
      "byteOffset": 6308512,
      "byteLength": 3154256
    },
    {
      "buffer": 0,
      "byteOffset": 9462768,
      "byteLength": 3093600
    },
    {
      "buffer": 0,
      "byteOffset": 12556368,
      "byteLength": 5140800
    },
    {
      "buffer": 0,
      "byteOffset": 17697168,
      "byteLength": 5140800
    },
    {
      "buffer": 0,
      "byteOffset": 22837968,
      "byteLength": 3427200
    },
    {
      "buffer": 0,
      "byteOffset": 26265168,
      "byteLength": 6854400
    },
    {
      "buffer": 0,
      "byteOffset": 33119568,
      "byteLength": 5483520
    },
    {
      "buffer": 0,
      "byteOffset": 38603088,
      "byteLength": 1512000
    },
    {
      "buffer": 0,
      "byteOffset": 40115088,
      "byteLength": 1512000
    },
    {
      "buffer": 0,
      "byteOffset": 41627088,
      "byteLength": 1008000
    },
    {
      "buffer": 0,
      "byteOffset": 42635088,
      "byteLength": 2016000
    },
    {
      "buffer": 0,
      "byteOffset": 44651088,
      "byteLength": 1612800
    }
  ],
  "buffers": [
    {
      "uri": "laurel_giant_lod1.bin",
      "byteLength": 46263888
    }
  ]
}
