{
  "asset": {
    "version": "2.0",
    "generator": "Gameport detailed vegetation"
  },
  "scene": 0,
  "scenes": [
    {
      "nodes": [
        0
      ]
    }
  ],
  "nodes": [
    {
      "mesh": 0,
      "name": "laurel_giant_lod2"
    }
  ],
  "meshes": [
    {
      "name": "laurel_giant_lod2",
      "primitives": [
        {
          "material": 0,
          "attributes": {
            "POSITION": 0,
            "NORMAL": 1,
            "TEXCOORD_0": 2,
            "TANGENT": 3
          },
          "indices": 4
        },
        {
          "material": 1,
          "attributes": {
            "POSITION": 5,
            "NORMAL": 6,
            "TEXCOORD_0": 7,
            "TANGENT": 8
          },
          "indices": 9
        },
        {
          "material": 2,
          "attributes": {
            "POSITION": 10,
            "NORMAL": 11,
            "TEXCOORD_0": 12,
            "TANGENT": 13
          },
          "indices": 14
        }
      ]
    }
  ],
  "materials": [
    {
      "name": "Scanned furrowed bark",
      "pbrMetallicRoughness": {
        "baseColorFactor": [
          1,
          1,
          1,
          1
        ],
        "metallicFactor": 0,
        "roughnessFactor": 1,
        "baseColorTexture": {
          "index": 0
        },
        "metallicRoughnessTexture": {
          "index": 1
        }
      },
      "doubleSided": false,
      "normalTexture": {
        "index": 2,
        "scale": 0.85
      },
      "occlusionTexture": {
        "index": 1
      }
    },
    {
      "name": "Mature broadleaf",
      "pbrMetallicRoughness": {
        "baseColorFactor": [
          1,
          1,
          1,
          1
        ],
        "metallicFactor": 0,
        "roughnessFactor": 1,
        "baseColorTexture": {
          "index": 3
        },
        "metallicRoughnessTexture": {
          "index": 4
        }
      },
      "doubleSided": false,
      "normalTexture": {
        "index": 5,
        "scale": 0.55
      },
      "occlusionTexture": {
        "index": 4
      }
    },
    {
      "name": "Sunlit young broadleaf",
      "pbrMetallicRoughness": {
        "baseColorFactor": [
          1.15,
          1.1,
          0.85,
          1
        ],
        "metallicFactor": 0,
        "roughnessFactor": 1,
        "baseColorTexture": {
          "index": 6
        },
        "metallicRoughnessTexture": {
          "index": 7
        }
      },
      "doubleSided": false,
      "normalTexture": {
        "index": 8,
        "scale": 0.55
      },
      "occlusionTexture": {
        "index": 7
      }
    }
  ],
  "images": [
    {
      "uri": "../textures/broadleaf_bark_albedo.jpg"
    },
    {
      "uri": "../textures/broadleaf_bark_orm.jpg"
    },
    {
      "uri": "../textures/broadleaf_bark_normal.png"
    },
    {
      "uri": "../textures/leaf_albedo.png"
    },
    {
      "uri": "../textures/leaf_orm.png"
    },
    {
      "uri": "../textures/leaf_normal.png"
    },
    {
      "uri": "../textures/leaf_albedo.png"
    },
    {
      "uri": "../textures/leaf_orm.png"
    },
    {
      "uri": "../textures/leaf_normal.png"
    }
  ],
  "textures": [
    {
      "source": 0,
      "sampler": 0
    },
    {
      "source": 1,
      "sampler": 0
    },
    {
      "source": 2,
      "sampler": 0
    },
    {
      "source": 3,
      "sampler": 0
    },
    {
      "source": 4,
      "sampler": 0
    },
    {
      "source": 5,
      "sampler": 0
    },
    {
      "source": 6,
      "sampler": 0
    },
    {
      "source": 7,
      "sampler": 0
    },
    {
      "source": 8,
      "sampler": 0
    }
  ],
  "samplers": [
    {
      "magFilter": 9729,
      "minFilter": 9987,
      "wrapS": 10497,
      "wrapT": 10497
    }
  ],
  "accessors": [
    {
      "bufferView": 0,
      "componentType": 5126,
      "count": 28994,
      "type": "VEC3",
      "min": [
        -8.83449935913086,
        -0.07628191262483597,
        -9.670737266540527
      ],
      "max": [
        8.895687103271484,
        17.831865310668945,
        8.895392417907715
      ]
    },
    {
      "bufferView": 1,
      "componentType": 5126,
      "count": 28994,
      "type": "VEC3",
      "min": [
        -0.999993085861206,
        -0.9989189505577087,
        -0.9999973773956299
      ],
      "max": [
        0.9999999403953552,
        0.9994907975196838,
        0.999992847442627
      ]
    },
    {
      "bufferView": 2,
      "componentType": 5126,
      "count": 28994,
      "type": "VEC2"
    },
    {
      "bufferView": 3,
      "componentType": 5126,
      "count": 28994,
      "type": "VEC4"
    },
    {
      "bufferView": 4,
      "componentType": 5125,
      "count": 115452,
      "type": "SCALAR"
    },
    {
      "bufferView": 5,
      "componentType": 5126,
      "count": 114240,
      "type": "VEC3",
      "min": [
        -9.871053695678711,
        3.7612295150756836,
        -10.248896598815918
      ],
      "max": [
        9.67081069946289,
        18.04867935180664,
        9.427363395690918
      ]
    },
    {
      "bufferView": 6,
      "componentType": 5126,
      "count": 114240,
      "type": "VEC3",
      "min": [
        -0.9999975562095642,
        -0.9999918937683105,
        -0.9999824166297913
      ],
      "max": [
        0.9999975562095642,
        0.9999918937683105,
        0.9999824166297913
      ]
    },
    {
      "bufferView": 7,
      "componentType": 5126,
      "count": 114240,
      "type": "VEC2"
    },
    {
      "bufferView": 8,
      "componentType": 5126,
      "count": 114240,
      "type": "VEC4"
    },
    {
      "bufferView": 9,
      "componentType": 5125,
      "count": 342720,
      "type": "SCALAR"
    },
    {
      "bufferView": 10,
      "componentType": 5126,
      "count": 33600,
      "type": "VEC3",
      "min": [
        -9.511835098266602,
        4.257708549499512,
        -9.84699535369873
      ],
      "max": [
        9.477188110351562,
        18.209457397460938,
        9.27035140991211
      ]
    },
    {
      "bufferView": 11,
      "componentType": 5126,
      "count": 33600,
      "type": "VEC3",
      "min": [
        -0.9999260902404785,
        -0.9999948143959045,
        -0.9999964833259583
      ],
      "max": [
        0.9999260902404785,
        0.9999948143959045,
        0.9999964833259583
      ]
    },
    {
      "bufferView": 12,
      "componentType": 5126,
      "count": 33600,
      "type": "VEC2"
    },
    {
      "bufferView": 13,
      "componentType": 5126,
      "count": 33600,
      "type": "VEC4"
    },
    {
      "bufferView": 14,
      "componentType": 5125,
      "count": 100800,
      "type": "SCALAR"
    }
  ],
  "bufferViews": [
    {
      "buffer": 0,
      "byteOffset": 0,
      "byteLength": 347928
    },
    {
      "buffer": 0,
      "byteOffset": 347928,
      "byteLength": 347928
    },
    {
      "buffer": 0,
      "byteOffset": 695856,
      "byteLength": 231952
    },
    {
      "buffer": 0,
      "byteOffset": 927808,
      "byteLength": 463904
    },
    {
      "buffer": 0,
      "byteOffset": 1391712,
      "byteLength": 461808
    },
    {
      "buffer": 0,
      "byteOffset": 1853520,
      "byteLength": 1370880
    },
    {
      "buffer": 0,
      "byteOffset": 3224400,
      "byteLength": 1370880
    },
    {
      "buffer": 0,
      "byteOffset": 4595280,
      "byteLength": 913920
    },
    {
      "buffer": 0,
      "byteOffset": 5509200,
      "byteLength": 1827840
    },
    {
      "buffer": 0,
      "byteOffset": 7337040,
      "byteLength": 1370880
    },
    {
      "buffer": 0,
      "byteOffset": 8707920,
      "byteLength": 403200
    },
    {
      "buffer": 0,
      "byteOffset": 9111120,
      "byteLength": 403200
    },
    {
      "buffer": 0,
      "byteOffset": 9514320,
      "byteLength": 268800
    },
    {
      "buffer": 0,
      "byteOffset": 9783120,
      "byteLength": 537600
    },
    {
      "buffer": 0,
      "byteOffset": 10320720,
      "byteLength": 403200
    }
  ],
  "buffers": [
    {
      "uri": "laurel_giant_lod2.bin",
      "byteLength": 10723920
    }
  ]
}
