{
  "asset": {
    "version": "2.0",
    "generator": "Gameport detailed vegetation"
  },
  "scene": 0,
  "scenes": [
    {
      "nodes": [
        0
      ]
    }
  ],
  "nodes": [
    {
      "mesh": 0,
      "name": "meadow_flowers_lod0"
    }
  ],
  "meshes": [
    {
      "name": "meadow_flowers_lod0",
      "primitives": [
        {
          "material": 0,
          "attributes": {
            "POSITION": 0,
            "NORMAL": 1,
            "TEXCOORD_0": 2,
            "TANGENT": 3
          },
          "indices": 4
        },
        {
          "material": 1,
          "attributes": {
            "POSITION": 5,
            "NORMAL": 6,
            "TEXCOORD_0": 7,
            "TANGENT": 8
          },
          "indices": 9
        },
        {
          "material": 2,
          "attributes": {
            "POSITION": 10,
            "NORMAL": 11,
            "TEXCOORD_0": 12,
            "TANGENT": 13
          },
          "indices": 14
        }
      ]
    }
  ],
  "materials": [
    {
      "name": "Meadow grass",
      "pbrMetallicRoughness": {
        "baseColorFactor": [
          1,
          1,
          1,
          1
        ],
        "metallicFactor": 0,
        "roughnessFactor": 1,
        "baseColorTexture": {
          "index": 0
        },
        "metallicRoughnessTexture": {
          "index": 1
        }
      },
      "doubleSided": false,
      "normalTexture": {
        "index": 2,
        "scale": 0.55
      },
      "occlusionTexture": {
        "index": 1
      }
    },
    {
      "name": "Ivory flower petals",
      "pbrMetallicRoughness": {
        "baseColorFactor": [
          0.78,
          0.75,
          0.58,
          1
        ],
        "metallicFactor": 0,
        "roughnessFactor": 0.7
      },
      "doubleSided": false
    },
    {
      "name": "Golden pollen",
      "pbrMetallicRoughness": {
        "baseColorFactor": [
          0.65,
          0.35,
          0.035,
          1
        ],
        "metallicFactor": 0,
        "roughnessFactor": 0.7
      },
      "doubleSided": false
    }
  ],
  "images": [
    {
      "uri": "../textures/grass_albedo.png"
    },
    {
      "uri": "../textures/grass_orm.png"
    },
    {
      "uri": "../textures/grass_normal.png"
    }
  ],
  "textures": [
    {
      "source": 0,
      "sampler": 0
    },
    {
      "source": 1,
      "sampler": 0
    },
    {
      "source": 2,
      "sampler": 0
    }
  ],
  "samplers": [
    {
      "magFilter": 9729,
      "minFilter": 9987,
      "wrapS": 10497,
      "wrapT": 10497
    }
  ],
  "accessors": [
    {
      "bufferView": 0,
      "componentType": 5126,
      "count": 9135,
      "type": "VEC3",
      "min": [
        -0.5412482619285583,
        -0.0036465106531977654,
        -0.49739059805870056
      ],
      "max": [
        0.46846991777420044,
        0.40073028206825256,
        0.5091338157653809
      ]
    },
    {
      "bufferView": 1,
      "componentType": 5126,
      "count": 9135,
      "type": "VEC3",
      "min": [
        -0.9998942017555237,
        -0.9996671676635742,
        -0.9999995827674866
      ],
      "max": [
        0.9998942017555237,
        0.9996671676635742,
        0.9999741911888123
      ]
    },
    {
      "bufferView": 2,
      "componentType": 5126,
      "count": 9135,
      "type": "VEC2"
    },
    {
      "bufferView": 3,
      "componentType": 5126,
      "count": 9135,
      "type": "VEC4"
    },
    {
      "bufferView": 4,
      "componentType": 5125,
      "count": 32340,
      "type": "SCALAR"
    },
    {
      "bufferView": 5,
      "componentType": 5126,
      "count": 7200,
      "type": "VEC3",
      "min": [
        -0.28246772289276123,
        0.20669209957122803,
        -0.27566859126091003
      ],
      "max": [
        0.29422786831855774,
        0.4135516285896301,
        0.24597957730293274
      ]
    },
    {
      "bufferView": 6,
      "componentType": 5126,
      "count": 7200,
      "type": "VEC3",
      "min": [
        -0.999878466129303,
        -0.9995740056037903,
        -0.9996651411056519
      ],
      "max": [
        0.999878466129303,
        0.9995740056037903,
        0.9996651411056519
      ]
    },
    {
      "bufferView": 7,
      "componentType": 5126,
      "count": 7200,
      "type": "VEC2"
    },
    {
      "bufferView": 8,
      "componentType": 5126,
      "count": 7200,
      "type": "VEC4"
    },
    {
      "bufferView": 9,
      "componentType": 5125,
      "count": 25200,
      "type": "SCALAR"
    },
    {
      "bufferView": 10,
      "componentType": 5126,
      "count": 1200,
      "type": "VEC3",
      "min": [
        -0.2603070139884949,
        0.2109438180923462,
        -0.2544260621070862
      ],
      "max": [
        0.27088555693626404,
        0.40967267751693726,
        0.22242993116378784
      ]
    },
    {
      "bufferView": 11,
      "componentType": 5126,
      "count": 1200,
      "type": "VEC3",
      "min": [
        -0.9762256145477295,
        -1.0,
        -0.9750262498855591
      ],
      "max": [
        0.9761595129966736,
        1.0,
        0.9773232936859131
      ]
    },
    {
      "bufferView": 12,
      "componentType": 5126,
      "count": 1200,
      "type": "VEC2"
    },
    {
      "bufferView": 13,
      "componentType": 5126,
      "count": 1200,
      "type": "VEC4"
    },
    {
      "bufferView": 14,
      "componentType": 5125,
      "count": 4320,
      "type": "SCALAR"
    }
  ],
  "bufferViews": [
    {
      "buffer": 0,
      "byteOffset": 0,
      "byteLength": 109620
    },
    {
      "buffer": 0,
      "byteOffset": 109620,
      "byteLength": 109620
    },
    {
      "buffer": 0,
      "byteOffset": 219240,
      "byteLength": 73080
    },
    {
      "buffer": 0,
      "byteOffset": 292320,
      "byteLength": 146160
    },
    {
      "buffer": 0,
      "byteOffset": 438480,
      "byteLength": 129360
    },
    {
      "buffer": 0,
      "byteOffset": 567840,
      "byteLength": 86400
    },
    {
      "buffer": 0,
      "byteOffset": 654240,
      "byteLength": 86400
    },
    {
      "buffer": 0,
      "byteOffset": 740640,
      "byteLength": 57600
    },
    {
      "buffer": 0,
      "byteOffset": 798240,
      "byteLength": 115200
    },
    {
      "buffer": 0,
      "byteOffset": 913440,
      "byteLength": 100800
    },
    {
      "buffer": 0,
      "byteOffset": 1014240,
      "byteLength": 14400
    },
    {
      "buffer": 0,
      "byteOffset": 1028640,
      "byteLength": 14400
    },
    {
      "buffer": 0,
      "byteOffset": 1043040,
      "byteLength": 9600
    },
    {
      "buffer": 0,
      "byteOffset": 1052640,
      "byteLength": 19200
    },
    {
      "buffer": 0,
      "byteOffset": 1071840,
      "byteLength": 17280
    }
  ],
  "buffers": [
    {
      "uri": "meadow_flowers_lod0.bin",
      "byteLength": 1089120
    }
  ]
}
