{
  "asset": {
    "version": "2.0",
    "generator": "Gameport detailed vegetation"
  },
  "scene": 0,
  "scenes": [
    {
      "nodes": [
        0
      ]
    }
  ],
  "nodes": [
    {
      "mesh": 0,
      "name": "meadow_flowers_lod2"
    }
  ],
  "meshes": [
    {
      "name": "meadow_flowers_lod2",
      "primitives": [
        {
          "material": 0,
          "attributes": {
            "POSITION": 0,
            "NORMAL": 1,
            "TEXCOORD_0": 2,
            "TANGENT": 3
          },
          "indices": 4
        },
        {
          "material": 1,
          "attributes": {
            "POSITION": 5,
            "NORMAL": 6,
            "TEXCOORD_0": 7,
            "TANGENT": 8
          },
          "indices": 9
        },
        {
          "material": 2,
          "attributes": {
            "POSITION": 10,
            "NORMAL": 11,
            "TEXCOORD_0": 12,
            "TANGENT": 13
          },
          "indices": 14
        }
      ]
    }
  ],
  "materials": [
    {
      "name": "Meadow grass",
      "pbrMetallicRoughness": {
        "baseColorFactor": [
          1,
          1,
          1,
          1
        ],
        "metallicFactor": 0,
        "roughnessFactor": 1,
        "baseColorTexture": {
          "index": 0
        },
        "metallicRoughnessTexture": {
          "index": 1
        }
      },
      "doubleSided": false,
      "normalTexture": {
        "index": 2,
        "scale": 0.55
      },
      "occlusionTexture": {
        "index": 1
      }
    },
    {
      "name": "Ivory flower petals",
      "pbrMetallicRoughness": {
        "baseColorFactor": [
          0.78,
          0.75,
          0.58,
          1
        ],
        "metallicFactor": 0,
        "roughnessFactor": 0.7
      },
      "doubleSided": false
    },
    {
      "name": "Golden pollen",
      "pbrMetallicRoughness": {
        "baseColorFactor": [
          0.65,
          0.35,
          0.035,
          1
        ],
        "metallicFactor": 0,
        "roughnessFactor": 0.7
      },
      "doubleSided": false
    }
  ],
  "images": [
    {
      "uri": "../textures/grass_albedo.png"
    },
    {
      "uri": "../textures/grass_orm.png"
    },
    {
      "uri": "../textures/grass_normal.png"
    }
  ],
  "textures": [
    {
      "source": 0,
      "sampler": 0
    },
    {
      "source": 1,
      "sampler": 0
    },
    {
      "source": 2,
      "sampler": 0
    }
  ],
  "samplers": [
    {
      "magFilter": 9729,
      "minFilter": 9987,
      "wrapS": 10497,
      "wrapT": 10497
    }
  ],
  "accessors": [
    {
      "bufferView": 0,
      "componentType": 5126,
      "count": 1431,
      "type": "VEC3",
      "min": [
        -0.542180597782135,
        -0.004565119743347168,
        -0.5360199213027954
      ],
      "max": [
        0.2706674039363861,
        0.40073028206825256,
        0.4691627025604248
      ]
    },
    {
      "bufferView": 1,
      "componentType": 5126,
      "count": 1431,
      "type": "VEC3",
      "min": [
        -0.9997726082801819,
        -0.9996671676635742,
        -0.9999995827674866
      ],
      "max": [
        0.9997726082801819,
        0.9996671676635742,
        0.9999741911888123
      ]
    },
    {
      "bufferView": 2,
      "componentType": 5126,
      "count": 1431,
      "type": "VEC2"
    },
    {
      "bufferView": 3,
      "componentType": 5126,
      "count": 1431,
      "type": "VEC4"
    },
    {
      "bufferView": 4,
      "componentType": 5125,
      "count": 5148,
      "type": "SCALAR"
    },
    {
      "bufferView": 5,
      "componentType": 5126,
      "count": 408,
      "type": "VEC3",
      "min": [
        -0.29089850187301636,
        0.20435072481632233,
        -0.27917030453681946
      ],
      "max": [
        0.2608985900878906,
        0.41918644309043884,
        0.2595551311969757
      ]
    },
    {
      "bufferView": 6,
      "componentType": 5126,
      "count": 408,
      "type": "VEC3",
      "min": [
        -0.9958472847938538,
        -0.9982699751853943,
        -0.9382001757621765
      ],
      "max": [
        0.9958472847938538,
        0.9982699751853943,
        0.9382001757621765
      ]
    },
    {
      "bufferView": 7,
      "componentType": 5126,
      "count": 408,
      "type": "VEC2"
    },
    {
      "bufferView": 8,
      "componentType": 5126,
      "count": 408,
      "type": "VEC4"
    },
    {
      "bufferView": 9,
      "componentType": 5125,
      "count": 1224,
      "type": "SCALAR"
    },
    {
      "bufferView": 10,
      "componentType": 5126,
      "count": 660,
      "type": "VEC3",
      "min": [
        -0.2590755224227905,
        0.2109438180923462,
        -0.2544260621070862
      ],
      "max": [
        0.2696540653705597,
        0.40967267751693726,
        0.22242993116378784
      ]
    },
    {
      "bufferView": 11,
      "componentType": 5126,
      "count": 660,
      "type": "VEC3",
      "min": [
        -0.8458770513534546,
        -1.0,
        -0.9750262498855591
      ],
      "max": [
        0.84592604637146,
        1.0,
        0.9773232936859131
      ]
    },
    {
      "bufferView": 12,
      "componentType": 5126,
      "count": 660,
      "type": "VEC2"
    },
    {
      "bufferView": 13,
      "componentType": 5126,
      "count": 660,
      "type": "VEC4"
    },
    {
      "bufferView": 14,
      "componentType": 5125,
      "count": 2160,
      "type": "SCALAR"
    }
  ],
  "bufferViews": [
    {
      "buffer": 0,
      "byteOffset": 0,
      "byteLength": 17172
    },
    {
      "buffer": 0,
      "byteOffset": 17172,
      "byteLength": 17172
    },
    {
      "buffer": 0,
      "byteOffset": 34344,
      "byteLength": 11448
    },
    {
      "buffer": 0,
      "byteOffset": 45792,
      "byteLength": 22896
    },
    {
      "buffer": 0,
      "byteOffset": 68688,
      "byteLength": 20592
    },
    {
      "buffer": 0,
      "byteOffset": 89280,
      "byteLength": 4896
    },
    {
      "buffer": 0,
      "byteOffset": 94176,
      "byteLength": 4896
    },
    {
      "buffer": 0,
      "byteOffset": 99072,
      "byteLength": 3264
    },
    {
      "buffer": 0,
      "byteOffset": 102336,
      "byteLength": 6528
    },
    {
      "buffer": 0,
      "byteOffset": 108864,
      "byteLength": 4896
    },
    {
      "buffer": 0,
      "byteOffset": 113760,
      "byteLength": 7920
    },
    {
      "buffer": 0,
      "byteOffset": 121680,
      "byteLength": 7920
    },
    {
      "buffer": 0,
      "byteOffset": 129600,
      "byteLength": 5280
    },
    {
      "buffer": 0,
      "byteOffset": 134880,
      "byteLength": 10560
    },
    {
      "buffer": 0,
      "byteOffset": 145440,
      "byteLength": 8640
    }
  ],
  "buffers": [
    {
      "uri": "meadow_flowers_lod2.bin",
      "byteLength": 154080
    }
  ]
}
