{
  "asset": {
    "version": "2.0",
    "generator": "Gameport detailed vegetation"
  },
  "scene": 0,
  "scenes": [
    {
      "nodes": [
        0
      ]
    }
  ],
  "nodes": [
    {
      "mesh": 0,
      "name": "oak_tall_lod0"
    }
  ],
  "meshes": [
    {
      "name": "oak_tall_lod0",
      "primitives": [
        {
          "material": 0,
          "attributes": {
            "POSITION": 0,
            "NORMAL": 1,
            "TEXCOORD_0": 2,
            "TANGENT": 3
          },
          "indices": 4
        },
        {
          "material": 1,
          "attributes": {
            "POSITION": 5,
            "NORMAL": 6,
            "TEXCOORD_0": 7,
            "TANGENT": 8
          },
          "indices": 9
        },
        {
          "material": 2,
          "attributes": {
            "POSITION": 10,
            "NORMAL": 11,
            "TEXCOORD_0": 12,
            "TANGENT": 13
          },
          "indices": 14
        }
      ]
    }
  ],
  "materials": [
    {
      "name": "Scanned furrowed bark",
      "pbrMetallicRoughness": {
        "baseColorFactor": [
          1,
          1,
          1,
          1
        ],
        "metallicFactor": 0,
        "roughnessFactor": 1,
        "baseColorTexture": {
          "index": 0
        },
        "metallicRoughnessTexture": {
          "index": 1
        }
      },
      "doubleSided": false,
      "normalTexture": {
        "index": 2,
        "scale": 0.85
      },
      "occlusionTexture": {
        "index": 1
      }
    },
    {
      "name": "Mature broadleaf",
      "pbrMetallicRoughness": {
        "baseColorFactor": [
          1,
          1,
          1,
          1
        ],
        "metallicFactor": 0,
        "roughnessFactor": 1,
        "baseColorTexture": {
          "index": 3
        },
        "metallicRoughnessTexture": {
          "index": 4
        }
      },
      "doubleSided": false,
      "normalTexture": {
        "index": 5,
        "scale": 0.55
      },
      "occlusionTexture": {
        "index": 4
      }
    },
    {
      "name": "Sunlit young broadleaf",
      "pbrMetallicRoughness": {
        "baseColorFactor": [
          1.15,
          1.1,
          0.85,
          1
        ],
        "metallicFactor": 0,
        "roughnessFactor": 1,
        "baseColorTexture": {
          "index": 6
        },
        "metallicRoughnessTexture": {
          "index": 7
        }
      },
      "doubleSided": false,
      "normalTexture": {
        "index": 8,
        "scale": 0.55
      },
      "occlusionTexture": {
        "index": 7
      }
    }
  ],
  "images": [
    {
      "uri": "../textures/broadleaf_bark_albedo.jpg"
    },
    {
      "uri": "../textures/broadleaf_bark_orm.jpg"
    },
    {
      "uri": "../textures/broadleaf_bark_normal.png"
    },
    {
      "uri": "../textures/leaf_albedo.png"
    },
    {
      "uri": "../textures/leaf_orm.png"
    },
    {
      "uri": "../textures/leaf_normal.png"
    },
    {
      "uri": "../textures/leaf_albedo.png"
    },
    {
      "uri": "../textures/leaf_orm.png"
    },
    {
      "uri": "../textures/leaf_normal.png"
    }
  ],
  "textures": [
    {
      "source": 0,
      "sampler": 0
    },
    {
      "source": 1,
      "sampler": 0
    },
    {
      "source": 2,
      "sampler": 0
    },
    {
      "source": 3,
      "sampler": 0
    },
    {
      "source": 4,
      "sampler": 0
    },
    {
      "source": 5,
      "sampler": 0
    },
    {
      "source": 6,
      "sampler": 0
    },
    {
      "source": 7,
      "sampler": 0
    },
    {
      "source": 8,
      "sampler": 0
    }
  ],
  "samplers": [
    {
      "magFilter": 9729,
      "minFilter": 9987,
      "wrapS": 10497,
      "wrapT": 10497
    }
  ],
  "accessors": [
    {
      "bufferView": 0,
      "componentType": 5126,
      "count": 76841,
      "type": "VEC3",
      "min": [
        -3.630873918533325,
        -0.030978025868535042,
        -3.59892201423645
      ],
      "max": [
        4.026087760925293,
        11.285085678100586,
        3.4905142784118652
      ]
    },
    {
      "bufferView": 1,
      "componentType": 5126,
      "count": 76841,
      "type": "VEC3",
      "min": [
        -0.9999995827674866,
        -1.0,
        -0.9999992847442627
      ],
      "max": [
        0.9999998211860657,
        1.0,
        0.9999969005584717
      ]
    },
    {
      "bufferView": 2,
      "componentType": 5126,
      "count": 76841,
      "type": "VEC2"
    },
    {
      "bufferView": 3,
      "componentType": 5126,
      "count": 76841,
      "type": "VEC4"
    },
    {
      "bufferView": 4,
      "componentType": 5125,
      "count": 341388,
      "type": "SCALAR"
    },
    {
      "bufferView": 5,
      "componentType": 5126,
      "count": 445536,
      "type": "VEC3",
      "min": [
        -3.754882335662842,
        5.646434307098389,
        -3.7987537384033203
      ],
      "max": [
        4.235950946807861,
        11.420648574829102,
        3.650273084640503
      ]
    },
    {
      "bufferView": 6,
      "componentType": 5126,
      "count": 445536,
      "type": "VEC3",
      "min": [
        -0.9999984502792358,
        -0.9999985098838806,
        -0.999991774559021
      ],
      "max": [
        0.9999984502792358,
        0.9999985098838806,
        0.999991774559021
      ]
    },
    {
      "bufferView": 7,
      "componentType": 5126,
      "count": 445536,
      "type": "VEC2"
    },
    {
      "bufferView": 8,
      "componentType": 5126,
      "count": 445536,
      "type": "VEC4"
    },
    {
      "bufferView": 9,
      "componentType": 5125,
      "count": 1559376,
      "type": "SCALAR"
    },
    {
      "bufferView": 10,
      "componentType": 5126,
      "count": 131040,
      "type": "VEC3",
      "min": [
        -3.763991355895996,
        5.621842384338379,
        -3.600501537322998
      ],
      "max": [
        4.052886486053467,
        11.39393424987793,
        3.6355435848236084
      ]
    },
    {
      "bufferView": 11,
      "componentType": 5126,
      "count": 131040,
      "type": "VEC3",
      "min": [
        -0.9999797940254211,
        -0.9999831914901733,
        -0.9999538660049438
      ],
      "max": [
        0.9999797940254211,
        0.9999831914901733,
        0.9999538660049438
      ]
    },
    {
      "bufferView": 12,
      "componentType": 5126,
      "count": 131040,
      "type": "VEC2"
    },
    {
      "bufferView": 13,
      "componentType": 5126,
      "count": 131040,
      "type": "VEC4"
    },
    {
      "bufferView": 14,
      "componentType": 5125,
      "count": 458640,
      "type": "SCALAR"
    }
  ],
  "bufferViews": [
    {
      "buffer": 0,
      "byteOffset": 0,
      "byteLength": 922092
    },
    {
      "buffer": 0,
      "byteOffset": 922092,
      "byteLength": 922092
    },
    {
      "buffer": 0,
      "byteOffset": 1844184,
      "byteLength": 614728
    },
    {
      "buffer": 0,
      "byteOffset": 2458912,
      "byteLength": 1229456
    },
    {
      "buffer": 0,
      "byteOffset": 3688368,
      "byteLength": 1365552
    },
    {
      "buffer": 0,
      "byteOffset": 5053920,
      "byteLength": 5346432
    },
    {
      "buffer": 0,
      "byteOffset": 10400352,
      "byteLength": 5346432
    },
    {
      "buffer": 0,
      "byteOffset": 15746784,
      "byteLength": 3564288
    },
    {
      "buffer": 0,
      "byteOffset": 19311072,
      "byteLength": 7128576
    },
    {
      "buffer": 0,
      "byteOffset": 26439648,
      "byteLength": 6237504
    },
    {
      "buffer": 0,
      "byteOffset": 32677152,
      "byteLength": 1572480
    },
    {
      "buffer": 0,
      "byteOffset": 34249632,
      "byteLength": 1572480
    },
    {
      "buffer": 0,
      "byteOffset": 35822112,
      "byteLength": 1048320
    },
    {
      "buffer": 0,
      "byteOffset": 36870432,
      "byteLength": 2096640
    },
    {
      "buffer": 0,
      "byteOffset": 38967072,
      "byteLength": 1834560
    }
  ],
  "buffers": [
    {
      "uri": "oak_tall_lod0.bin",
      "byteLength": 40801632
    }
  ]
}
