{
  "asset": {
    "version": "2.0",
    "generator": "Gameport detailed vegetation"
  },
  "scene": 0,
  "scenes": [
    {
      "nodes": [
        0
      ]
    }
  ],
  "nodes": [
    {
      "mesh": 0,
      "name": "oak_spreading_lod1"
    }
  ],
  "meshes": [
    {
      "name": "oak_spreading_lod1",
      "primitives": [
        {
          "material": 0,
          "attributes": {
            "POSITION": 0,
            "NORMAL": 1,
            "TEXCOORD_0": 2,
            "TANGENT": 3
          },
          "indices": 4
        },
        {
          "material": 1,
          "attributes": {
            "POSITION": 5,
            "NORMAL": 6,
            "TEXCOORD_0": 7,
            "TANGENT": 8
          },
          "indices": 9
        },
        {
          "material": 2,
          "attributes": {
            "POSITION": 10,
            "NORMAL": 11,
            "TEXCOORD_0": 12,
            "TANGENT": 13
          },
          "indices": 14
        }
      ]
    }
  ],
  "materials": [
    {
      "name": "Scanned furrowed bark",
      "pbrMetallicRoughness": {
        "baseColorFactor": [
          1,
          1,
          1,
          1
        ],
        "metallicFactor": 0,
        "roughnessFactor": 1,
        "baseColorTexture": {
          "index": 0
        },
        "metallicRoughnessTexture": {
          "index": 1
        }
      },
      "doubleSided": false,
      "normalTexture": {
        "index": 2,
        "scale": 0.85
      },
      "occlusionTexture": {
        "index": 1
      }
    },
    {
      "name": "Mature broadleaf",
      "pbrMetallicRoughness": {
        "baseColorFactor": [
          1,
          1,
          1,
          1
        ],
        "metallicFactor": 0,
        "roughnessFactor": 1,
        "baseColorTexture": {
          "index": 3
        },
        "metallicRoughnessTexture": {
          "index": 4
        }
      },
      "doubleSided": false,
      "normalTexture": {
        "index": 5,
        "scale": 0.55
      },
      "occlusionTexture": {
        "index": 4
      }
    },
    {
      "name": "Sunlit young broadleaf",
      "pbrMetallicRoughness": {
        "baseColorFactor": [
          1.15,
          1.1,
          0.85,
          1
        ],
        "metallicFactor": 0,
        "roughnessFactor": 1,
        "baseColorTexture": {
          "index": 6
        },
        "metallicRoughnessTexture": {
          "index": 7
        }
      },
      "doubleSided": false,
      "normalTexture": {
        "index": 8,
        "scale": 0.55
      },
      "occlusionTexture": {
        "index": 7
      }
    }
  ],
  "images": [
    {
      "uri": "../textures/broadleaf_bark_albedo.jpg"
    },
    {
      "uri": "../textures/broadleaf_bark_orm.jpg"
    },
    {
      "uri": "../textures/broadleaf_bark_normal.png"
    },
    {
      "uri": "../textures/leaf_albedo.png"
    },
    {
      "uri": "../textures/leaf_orm.png"
    },
    {
      "uri": "../textures/leaf_normal.png"
    },
    {
      "uri": "../textures/leaf_albedo.png"
    },
    {
      "uri": "../textures/leaf_orm.png"
    },
    {
      "uri": "../textures/leaf_normal.png"
    }
  ],
  "textures": [
    {
      "source": 0,
      "sampler": 0
    },
    {
      "source": 1,
      "sampler": 0
    },
    {
      "source": 2,
      "sampler": 0
    },
    {
      "source": 3,
      "sampler": 0
    },
    {
      "source": 4,
      "sampler": 0
    },
    {
      "source": 5,
      "sampler": 0
    },
    {
      "source": 6,
      "sampler": 0
    },
    {
      "source": 7,
      "sampler": 0
    },
    {
      "source": 8,
      "sampler": 0
    }
  ],
  "samplers": [
    {
      "magFilter": 9729,
      "minFilter": 9987,
      "wrapS": 10497,
      "wrapT": 10497
    }
  ],
  "accessors": [
    {
      "bufferView": 0,
      "componentType": 5126,
      "count": 45748,
      "type": "VEC3",
      "min": [
        -4.981251239776611,
        -0.00024786320864222944,
        -4.491573333740234
      ],
      "max": [
        4.307180404663086,
        8.645060539245605,
        4.6203083992004395
      ]
    },
    {
      "bufferView": 1,
      "componentType": 5126,
      "count": 45748,
      "type": "VEC3",
      "min": [
        -0.9999974370002747,
        -0.9999997019767761,
        -0.999995768070221
      ],
      "max": [
        0.9999784827232361,
        0.9998458027839661,
        0.9999591112136841
      ]
    },
    {
      "bufferView": 2,
      "componentType": 5126,
      "count": 45748,
      "type": "VEC2"
    },
    {
      "bufferView": 3,
      "componentType": 5126,
      "count": 45748,
      "type": "VEC4"
    },
    {
      "bufferView": 4,
      "componentType": 5125,
      "count": 181398,
      "type": "SCALAR"
    },
    {
      "bufferView": 5,
      "componentType": 5126,
      "count": 92700,
      "type": "VEC3",
      "min": [
        -5.132513046264648,
        3.8384385108947754,
        -4.654454231262207
      ],
      "max": [
        4.492129325866699,
        8.7150297164917,
        4.741609573364258
      ]
    },
    {
      "bufferView": 6,
      "componentType": 5126,
      "count": 92700,
      "type": "VEC3",
      "min": [
        -0.9999345541000366,
        -0.9999786615371704,
        -0.9999990463256836
      ],
      "max": [
        0.9999345541000366,
        0.9999786615371704,
        0.9999990463256836
      ]
    },
    {
      "bufferView": 7,
      "componentType": 5126,
      "count": 92700,
      "type": "VEC2"
    },
    {
      "bufferView": 8,
      "componentType": 5126,
      "count": 92700,
      "type": "VEC4"
    },
    {
      "bufferView": 9,
      "componentType": 5125,
      "count": 296640,
      "type": "SCALAR"
    },
    {
      "bufferView": 10,
      "componentType": 5126,
      "count": 27360,
      "type": "VEC3",
      "min": [
        -5.140995979309082,
        3.900069236755371,
        -4.5565185546875
      ],
      "max": [
        4.464532852172852,
        8.574127197265625,
        4.520538806915283
      ]
    },
    {
      "bufferView": 11,
      "componentType": 5126,
      "count": 27360,
      "type": "VEC3",
      "min": [
        -0.9999536275863647,
        -0.9999968409538269,
        -0.9999884366989136
      ],
      "max": [
        0.9999536275863647,
        0.9999968409538269,
        0.9999884366989136
      ]
    },
    {
      "bufferView": 12,
      "componentType": 5126,
      "count": 27360,
      "type": "VEC2"
    },
    {
      "bufferView": 13,
      "componentType": 5126,
      "count": 27360,
      "type": "VEC4"
    },
    {
      "bufferView": 14,
      "componentType": 5125,
      "count": 87552,
      "type": "SCALAR"
    }
  ],
  "bufferViews": [
    {
      "buffer": 0,
      "byteOffset": 0,
      "byteLength": 548976
    },
    {
      "buffer": 0,
      "byteOffset": 548976,
      "byteLength": 548976
    },
    {
      "buffer": 0,
      "byteOffset": 1097952,
      "byteLength": 365984
    },
    {
      "buffer": 0,
      "byteOffset": 1463936,
      "byteLength": 731968
    },
    {
      "buffer": 0,
      "byteOffset": 2195904,
      "byteLength": 725592
    },
    {
      "buffer": 0,
      "byteOffset": 2921496,
      "byteLength": 1112400
    },
    {
      "buffer": 0,
      "byteOffset": 4033896,
      "byteLength": 1112400
    },
    {
      "buffer": 0,
      "byteOffset": 5146296,
      "byteLength": 741600
    },
    {
      "buffer": 0,
      "byteOffset": 5887896,
      "byteLength": 1483200
    },
    {
      "buffer": 0,
      "byteOffset": 7371096,
      "byteLength": 1186560
    },
    {
      "buffer": 0,
      "byteOffset": 8557656,
      "byteLength": 328320
    },
    {
      "buffer": 0,
      "byteOffset": 8885976,
      "byteLength": 328320
    },
    {
      "buffer": 0,
      "byteOffset": 9214296,
      "byteLength": 218880
    },
    {
      "buffer": 0,
      "byteOffset": 9433176,
      "byteLength": 437760
    },
    {
      "buffer": 0,
      "byteOffset": 9870936,
      "byteLength": 350208
    }
  ],
  "buffers": [
    {
      "uri": "oak_spreading_lod1.bin",
      "byteLength": 10221144
    }
  ]
}
