{
  "asset": {
    "version": "2.0",
    "generator": "Gameport detailed vegetation"
  },
  "scene": 0,
  "scenes": [
    {
      "nodes": [
        0
      ]
    }
  ],
  "nodes": [
    {
      "mesh": 0,
      "name": "oak_tall_lod1"
    }
  ],
  "meshes": [
    {
      "name": "oak_tall_lod1",
      "primitives": [
        {
          "material": 0,
          "attributes": {
            "POSITION": 0,
            "NORMAL": 1,
            "TEXCOORD_0": 2,
            "TANGENT": 3
          },
          "indices": 4
        },
        {
          "material": 1,
          "attributes": {
            "POSITION": 5,
            "NORMAL": 6,
            "TEXCOORD_0": 7,
            "TANGENT": 8
          },
          "indices": 9
        },
        {
          "material": 2,
          "attributes": {
            "POSITION": 10,
            "NORMAL": 11,
            "TEXCOORD_0": 12,
            "TANGENT": 13
          },
          "indices": 14
        }
      ]
    }
  ],
  "materials": [
    {
      "name": "Scanned furrowed bark",
      "pbrMetallicRoughness": {
        "baseColorFactor": [
          1,
          1,
          1,
          1
        ],
        "metallicFactor": 0,
        "roughnessFactor": 1,
        "baseColorTexture": {
          "index": 0
        },
        "metallicRoughnessTexture": {
          "index": 1
        }
      },
      "doubleSided": false,
      "normalTexture": {
        "index": 2,
        "scale": 0.85
      },
      "occlusionTexture": {
        "index": 1
      }
    },
    {
      "name": "Mature broadleaf",
      "pbrMetallicRoughness": {
        "baseColorFactor": [
          1,
          1,
          1,
          1
        ],
        "metallicFactor": 0,
        "roughnessFactor": 1,
        "baseColorTexture": {
          "index": 3
        },
        "metallicRoughnessTexture": {
          "index": 4
        }
      },
      "doubleSided": false,
      "normalTexture": {
        "index": 5,
        "scale": 0.55
      },
      "occlusionTexture": {
        "index": 4
      }
    },
    {
      "name": "Sunlit young broadleaf",
      "pbrMetallicRoughness": {
        "baseColorFactor": [
          1.15,
          1.1,
          0.85,
          1
        ],
        "metallicFactor": 0,
        "roughnessFactor": 1,
        "baseColorTexture": {
          "index": 6
        },
        "metallicRoughnessTexture": {
          "index": 7
        }
      },
      "doubleSided": false,
      "normalTexture": {
        "index": 8,
        "scale": 0.55
      },
      "occlusionTexture": {
        "index": 7
      }
    }
  ],
  "images": [
    {
      "uri": "../textures/broadleaf_bark_albedo.jpg"
    },
    {
      "uri": "../textures/broadleaf_bark_orm.jpg"
    },
    {
      "uri": "../textures/broadleaf_bark_normal.png"
    },
    {
      "uri": "../textures/leaf_albedo.png"
    },
    {
      "uri": "../textures/leaf_orm.png"
    },
    {
      "uri": "../textures/leaf_normal.png"
    },
    {
      "uri": "../textures/leaf_albedo.png"
    },
    {
      "uri": "../textures/leaf_orm.png"
    },
    {
      "uri": "../textures/leaf_normal.png"
    }
  ],
  "textures": [
    {
      "source": 0,
      "sampler": 0
    },
    {
      "source": 1,
      "sampler": 0
    },
    {
      "source": 2,
      "sampler": 0
    },
    {
      "source": 3,
      "sampler": 0
    },
    {
      "source": 4,
      "sampler": 0
    },
    {
      "source": 5,
      "sampler": 0
    },
    {
      "source": 6,
      "sampler": 0
    },
    {
      "source": 7,
      "sampler": 0
    },
    {
      "source": 8,
      "sampler": 0
    }
  ],
  "samplers": [
    {
      "magFilter": 9729,
      "minFilter": 9987,
      "wrapS": 10497,
      "wrapT": 10497
    }
  ],
  "accessors": [
    {
      "bufferView": 0,
      "componentType": 5126,
      "count": 45748,
      "type": "VEC3",
      "min": [
        -3.630898952484131,
        -0.02380271442234516,
        -3.598936080932617
      ],
      "max": [
        4.026087760925293,
        11.284989356994629,
        3.490389108657837
      ]
    },
    {
      "bufferView": 1,
      "componentType": 5126,
      "count": 45748,
      "type": "VEC3",
      "min": [
        -0.9999995827674866,
        -0.9999974966049194,
        -0.9999998211860657
      ],
      "max": [
        0.9999997615814209,
        0.9985997676849365,
        0.9999969005584717
      ]
    },
    {
      "bufferView": 2,
      "componentType": 5126,
      "count": 45748,
      "type": "VEC2"
    },
    {
      "bufferView": 3,
      "componentType": 5126,
      "count": 45748,
      "type": "VEC4"
    },
    {
      "bufferView": 4,
      "componentType": 5125,
      "count": 181398,
      "type": "SCALAR"
    },
    {
      "bufferView": 5,
      "componentType": 5126,
      "count": 92700,
      "type": "VEC3",
      "min": [
        -3.677642822265625,
        5.641519546508789,
        -3.64933180809021
      ],
      "max": [
        4.214457988739014,
        11.445293426513672,
        3.6923511028289795
      ]
    },
    {
      "bufferView": 6,
      "componentType": 5126,
      "count": 92700,
      "type": "VEC3",
      "min": [
        -0.9999990463256836,
        -0.9999813437461853,
        -0.9999452829360962
      ],
      "max": [
        0.9999990463256836,
        0.9999813437461853,
        0.9999452829360962
      ]
    },
    {
      "bufferView": 7,
      "componentType": 5126,
      "count": 92700,
      "type": "VEC2"
    },
    {
      "bufferView": 8,
      "componentType": 5126,
      "count": 92700,
      "type": "VEC4"
    },
    {
      "bufferView": 9,
      "componentType": 5125,
      "count": 296640,
      "type": "SCALAR"
    },
    {
      "bufferView": 10,
      "componentType": 5126,
      "count": 27360,
      "type": "VEC3",
      "min": [
        -3.7906267642974854,
        5.702071189880371,
        -3.3655927181243896
      ],
      "max": [
        3.946603536605835,
        11.419984817504883,
        3.5855228900909424
      ]
    },
    {
      "bufferView": 11,
      "componentType": 5126,
      "count": 27360,
      "type": "VEC3",
      "min": [
        -0.9999775886535645,
        -0.9999316334724426,
        -0.999891459941864
      ],
      "max": [
        0.9999775886535645,
        0.9999316334724426,
        0.999891459941864
      ]
    },
    {
      "bufferView": 12,
      "componentType": 5126,
      "count": 27360,
      "type": "VEC2"
    },
    {
      "bufferView": 13,
      "componentType": 5126,
      "count": 27360,
      "type": "VEC4"
    },
    {
      "bufferView": 14,
      "componentType": 5125,
      "count": 87552,
      "type": "SCALAR"
    }
  ],
  "bufferViews": [
    {
      "buffer": 0,
      "byteOffset": 0,
      "byteLength": 548976
    },
    {
      "buffer": 0,
      "byteOffset": 548976,
      "byteLength": 548976
    },
    {
      "buffer": 0,
      "byteOffset": 1097952,
      "byteLength": 365984
    },
    {
      "buffer": 0,
      "byteOffset": 1463936,
      "byteLength": 731968
    },
    {
      "buffer": 0,
      "byteOffset": 2195904,
      "byteLength": 725592
    },
    {
      "buffer": 0,
      "byteOffset": 2921496,
      "byteLength": 1112400
    },
    {
      "buffer": 0,
      "byteOffset": 4033896,
      "byteLength": 1112400
    },
    {
      "buffer": 0,
      "byteOffset": 5146296,
      "byteLength": 741600
    },
    {
      "buffer": 0,
      "byteOffset": 5887896,
      "byteLength": 1483200
    },
    {
      "buffer": 0,
      "byteOffset": 7371096,
      "byteLength": 1186560
    },
    {
      "buffer": 0,
      "byteOffset": 8557656,
      "byteLength": 328320
    },
    {
      "buffer": 0,
      "byteOffset": 8885976,
      "byteLength": 328320
    },
    {
      "buffer": 0,
      "byteOffset": 9214296,
      "byteLength": 218880
    },
    {
      "buffer": 0,
      "byteOffset": 9433176,
      "byteLength": 437760
    },
    {
      "buffer": 0,
      "byteOffset": 9870936,
      "byteLength": 350208
    }
  ],
  "buffers": [
    {
      "uri": "oak_tall_lod1.bin",
      "byteLength": 10221144
    }
  ]
}
