{
  "asset": {
    "version": "2.0",
    "generator": "Gameport detailed vegetation"
  },
  "scene": 0,
  "scenes": [
    {
      "nodes": [
        0
      ]
    }
  ],
  "nodes": [
    {
      "mesh": 0,
      "name": "oak_sapling_lod2"
    }
  ],
  "meshes": [
    {
      "name": "oak_sapling_lod2",
      "primitives": [
        {
          "material": 0,
          "attributes": {
            "POSITION": 0,
            "NORMAL": 1,
            "TEXCOORD_0": 2,
            "TANGENT": 3
          },
          "indices": 4
        },
        {
          "material": 1,
          "attributes": {
            "POSITION": 5,
            "NORMAL": 6,
            "TEXCOORD_0": 7,
            "TANGENT": 8
          },
          "indices": 9
        },
        {
          "material": 2,
          "attributes": {
            "POSITION": 10,
            "NORMAL": 11,
            "TEXCOORD_0": 12,
            "TANGENT": 13
          },
          "indices": 14
        }
      ]
    }
  ],
  "materials": [
    {
      "name": "Scanned furrowed bark",
      "pbrMetallicRoughness": {
        "baseColorFactor": [
          1,
          1,
          1,
          1
        ],
        "metallicFactor": 0,
        "roughnessFactor": 1,
        "baseColorTexture": {
          "index": 0
        },
        "metallicRoughnessTexture": {
          "index": 1
        }
      },
      "doubleSided": false,
      "normalTexture": {
        "index": 2,
        "scale": 0.85
      },
      "occlusionTexture": {
        "index": 1
      }
    },
    {
      "name": "Mature broadleaf",
      "pbrMetallicRoughness": {
        "baseColorFactor": [
          1,
          1,
          1,
          1
        ],
        "metallicFactor": 0,
        "roughnessFactor": 1,
        "baseColorTexture": {
          "index": 3
        },
        "metallicRoughnessTexture": {
          "index": 4
        }
      },
      "doubleSided": false,
      "normalTexture": {
        "index": 5,
        "scale": 0.55
      },
      "occlusionTexture": {
        "index": 4
      }
    },
    {
      "name": "Sunlit young broadleaf",
      "pbrMetallicRoughness": {
        "baseColorFactor": [
          1.15,
          1.1,
          0.85,
          1
        ],
        "metallicFactor": 0,
        "roughnessFactor": 1,
        "baseColorTexture": {
          "index": 6
        },
        "metallicRoughnessTexture": {
          "index": 7
        }
      },
      "doubleSided": false,
      "normalTexture": {
        "index": 8,
        "scale": 0.55
      },
      "occlusionTexture": {
        "index": 7
      }
    }
  ],
  "images": [
    {
      "uri": "../textures/broadleaf_bark_albedo.jpg"
    },
    {
      "uri": "../textures/broadleaf_bark_orm.jpg"
    },
    {
      "uri": "../textures/broadleaf_bark_normal.png"
    },
    {
      "uri": "../textures/leaf_albedo.png"
    },
    {
      "uri": "../textures/leaf_orm.png"
    },
    {
      "uri": "../textures/leaf_normal.png"
    },
    {
      "uri": "../textures/leaf_albedo.png"
    },
    {
      "uri": "../textures/leaf_orm.png"
    },
    {
      "uri": "../textures/leaf_normal.png"
    }
  ],
  "textures": [
    {
      "source": 0,
      "sampler": 0
    },
    {
      "source": 1,
      "sampler": 0
    },
    {
      "source": 2,
      "sampler": 0
    },
    {
      "source": 3,
      "sampler": 0
    },
    {
      "source": 4,
      "sampler": 0
    },
    {
      "source": 5,
      "sampler": 0
    },
    {
      "source": 6,
      "sampler": 0
    },
    {
      "source": 7,
      "sampler": 0
    },
    {
      "source": 8,
      "sampler": 0
    }
  ],
  "samplers": [
    {
      "magFilter": 9729,
      "minFilter": 9987,
      "wrapS": 10497,
      "wrapT": 10497
    }
  ],
  "accessors": [
    {
      "bufferView": 0,
      "componentType": 5126,
      "count": 2034,
      "type": "VEC3",
      "min": [
        -1.0447189807891846,
        -0.0006917353020980954,
        -1.1705106496810913
      ],
      "max": [
        0.9747617840766907,
        3.486443519592285,
        1.1093264818191528
      ]
    },
    {
      "bufferView": 1,
      "componentType": 5126,
      "count": 2034,
      "type": "VEC3",
      "min": [
        -0.9980483055114746,
        -0.9999865293502808,
        -0.9995739459991455
      ],
      "max": [
        0.9998451471328735,
        0.9918553233146667,
        0.9958606958389282
      ]
    },
    {
      "bufferView": 2,
      "componentType": 5126,
      "count": 2034,
      "type": "VEC2"
    },
    {
      "bufferView": 3,
      "componentType": 5126,
      "count": 2034,
      "type": "VEC4"
    },
    {
      "bufferView": 4,
      "componentType": 5125,
      "count": 9078,
      "type": "SCALAR"
    },
    {
      "bufferView": 5,
      "componentType": 5126,
      "count": 17136,
      "type": "VEC3",
      "min": [
        -1.7379233837127686,
        1.6812151670455933,
        -1.7061371803283691
      ],
      "max": [
        1.441902995109558,
        3.724121570587158,
        1.6046326160430908
      ]
    },
    {
      "bufferView": 6,
      "componentType": 5126,
      "count": 17136,
      "type": "VEC3",
      "min": [
        -0.9997818470001221,
        -0.9999710321426392,
        -0.9999350905418396
      ],
      "max": [
        0.9997818470001221,
        0.9999710321426392,
        0.9999350905418396
      ]
    },
    {
      "bufferView": 7,
      "componentType": 5126,
      "count": 17136,
      "type": "VEC2"
    },
    {
      "bufferView": 8,
      "componentType": 5126,
      "count": 17136,
      "type": "VEC4"
    },
    {
      "bufferView": 9,
      "componentType": 5125,
      "count": 51408,
      "type": "SCALAR"
    },
    {
      "bufferView": 10,
      "componentType": 5126,
      "count": 5040,
      "type": "VEC3",
      "min": [
        -1.710187315940857,
        1.7772749662399292,
        -1.7033004760742188
      ],
      "max": [
        1.3599966764450073,
        3.8200201988220215,
        1.5082290172576904
      ]
    },
    {
      "bufferView": 11,
      "componentType": 5126,
      "count": 5040,
      "type": "VEC3",
      "min": [
        -0.9997087717056274,
        -0.9996798038482666,
        -0.9990655183792114
      ],
      "max": [
        0.9997087717056274,
        0.9996798038482666,
        0.9990655183792114
      ]
    },
    {
      "bufferView": 12,
      "componentType": 5126,
      "count": 5040,
      "type": "VEC2"
    },
    {
      "bufferView": 13,
      "componentType": 5126,
      "count": 5040,
      "type": "VEC4"
    },
    {
      "bufferView": 14,
      "componentType": 5125,
      "count": 15120,
      "type": "SCALAR"
    }
  ],
  "bufferViews": [
    {
      "buffer": 0,
      "byteOffset": 0,
      "byteLength": 24408
    },
    {
      "buffer": 0,
      "byteOffset": 24408,
      "byteLength": 24408
    },
    {
      "buffer": 0,
      "byteOffset": 48816,
      "byteLength": 16272
    },
    {
      "buffer": 0,
      "byteOffset": 65088,
      "byteLength": 32544
    },
    {
      "buffer": 0,
      "byteOffset": 97632,
      "byteLength": 36312
    },
    {
      "buffer": 0,
      "byteOffset": 133944,
      "byteLength": 205632
    },
    {
      "buffer": 0,
      "byteOffset": 339576,
      "byteLength": 205632
    },
    {
      "buffer": 0,
      "byteOffset": 545208,
      "byteLength": 137088
    },
    {
      "buffer": 0,
      "byteOffset": 682296,
      "byteLength": 274176
    },
    {
      "buffer": 0,
      "byteOffset": 956472,
      "byteLength": 205632
    },
    {
      "buffer": 0,
      "byteOffset": 1162104,
      "byteLength": 60480
    },
    {
      "buffer": 0,
      "byteOffset": 1222584,
      "byteLength": 60480
    },
    {
      "buffer": 0,
      "byteOffset": 1283064,
      "byteLength": 40320
    },
    {
      "buffer": 0,
      "byteOffset": 1323384,
      "byteLength": 80640
    },
    {
      "buffer": 0,
      "byteOffset": 1404024,
      "byteLength": 60480
    }
  ],
  "buffers": [
    {
      "uri": "oak_sapling_lod2.bin",
      "byteLength": 1464504
    }
  ]
}
