{
  "asset": {
    "version": "2.0",
    "generator": "Gameport detailed vegetation"
  },
  "scene": 0,
  "scenes": [
    {
      "nodes": [
        0
      ]
    }
  ],
  "nodes": [
    {
      "mesh": 0,
      "name": "oak_sapling_lod0"
    }
  ],
  "meshes": [
    {
      "name": "oak_sapling_lod0",
      "primitives": [
        {
          "material": 0,
          "attributes": {
            "POSITION": 0,
            "NORMAL": 1,
            "TEXCOORD_0": 2,
            "TANGENT": 3
          },
          "indices": 4
        },
        {
          "material": 1,
          "attributes": {
            "POSITION": 5,
            "NORMAL": 6,
            "TEXCOORD_0": 7,
            "TANGENT": 8
          },
          "indices": 9
        },
        {
          "material": 2,
          "attributes": {
            "POSITION": 10,
            "NORMAL": 11,
            "TEXCOORD_0": 12,
            "TANGENT": 13
          },
          "indices": 14
        }
      ]
    }
  ],
  "materials": [
    {
      "name": "Scanned furrowed bark",
      "pbrMetallicRoughness": {
        "baseColorFactor": [
          1,
          1,
          1,
          1
        ],
        "metallicFactor": 0,
        "roughnessFactor": 1,
        "baseColorTexture": {
          "index": 0
        },
        "metallicRoughnessTexture": {
          "index": 1
        }
      },
      "doubleSided": false,
      "normalTexture": {
        "index": 2,
        "scale": 0.85
      },
      "occlusionTexture": {
        "index": 1
      }
    },
    {
      "name": "Mature broadleaf",
      "pbrMetallicRoughness": {
        "baseColorFactor": [
          1,
          1,
          1,
          1
        ],
        "metallicFactor": 0,
        "roughnessFactor": 1,
        "baseColorTexture": {
          "index": 3
        },
        "metallicRoughnessTexture": {
          "index": 4
        }
      },
      "doubleSided": false,
      "normalTexture": {
        "index": 5,
        "scale": 0.55
      },
      "occlusionTexture": {
        "index": 4
      }
    },
    {
      "name": "Sunlit young broadleaf",
      "pbrMetallicRoughness": {
        "baseColorFactor": [
          1.15,
          1.1,
          0.85,
          1
        ],
        "metallicFactor": 0,
        "roughnessFactor": 1,
        "baseColorTexture": {
          "index": 6
        },
        "metallicRoughnessTexture": {
          "index": 7
        }
      },
      "doubleSided": false,
      "normalTexture": {
        "index": 8,
        "scale": 0.55
      },
      "occlusionTexture": {
        "index": 7
      }
    }
  ],
  "images": [
    {
      "uri": "../textures/broadleaf_bark_albedo.jpg"
    },
    {
      "uri": "../textures/broadleaf_bark_orm.jpg"
    },
    {
      "uri": "../textures/broadleaf_bark_normal.png"
    },
    {
      "uri": "../textures/leaf_albedo.png"
    },
    {
      "uri": "../textures/leaf_orm.png"
    },
    {
      "uri": "../textures/leaf_normal.png"
    },
    {
      "uri": "../textures/leaf_albedo.png"
    },
    {
      "uri": "../textures/leaf_orm.png"
    },
    {
      "uri": "../textures/leaf_normal.png"
    }
  ],
  "textures": [
    {
      "source": 0,
      "sampler": 0
    },
    {
      "source": 1,
      "sampler": 0
    },
    {
      "source": 2,
      "sampler": 0
    },
    {
      "source": 3,
      "sampler": 0
    },
    {
      "source": 4,
      "sampler": 0
    },
    {
      "source": 5,
      "sampler": 0
    },
    {
      "source": 6,
      "sampler": 0
    },
    {
      "source": 7,
      "sampler": 0
    },
    {
      "source": 8,
      "sampler": 0
    }
  ],
  "samplers": [
    {
      "magFilter": 9729,
      "minFilter": 9987,
      "wrapS": 10497,
      "wrapT": 10497
    }
  ],
  "accessors": [
    {
      "bufferView": 0,
      "componentType": 5126,
      "count": 55617,
      "type": "VEC3",
      "min": [
        -1.562945008277893,
        -0.0008332652505487204,
        -1.5559555292129517
      ],
      "max": [
        1.3753865957260132,
        3.7602858543395996,
        1.4728519916534424
      ]
    },
    {
      "bufferView": 1,
      "componentType": 5126,
      "count": 55617,
      "type": "VEC3",
      "min": [
        -0.9999994039535522,
        -1.0,
        -0.9999904036521912
      ],
      "max": [
        0.9999896287918091,
        1.0,
        0.9999847412109375
      ]
    },
    {
      "bufferView": 2,
      "componentType": 5126,
      "count": 55617,
      "type": "VEC2"
    },
    {
      "bufferView": 3,
      "componentType": 5126,
      "count": 55617,
      "type": "VEC4"
    },
    {
      "bufferView": 4,
      "componentType": 5125,
      "count": 249564,
      "type": "SCALAR"
    },
    {
      "bufferView": 5,
      "componentType": 5126,
      "count": 308448,
      "type": "VEC3",
      "min": [
        -1.717751145362854,
        1.6603772640228271,
        -1.6660842895507812
      ],
      "max": [
        1.4906690120697021,
        3.862041711807251,
        1.5777366161346436
      ]
    },
    {
      "bufferView": 6,
      "componentType": 5126,
      "count": 308448,
      "type": "VEC3",
      "min": [
        -0.999985933303833,
        -0.9999966621398926,
        -0.999997079372406
      ],
      "max": [
        0.999985933303833,
        0.9999966621398926,
        0.999997079372406
      ]
    },
    {
      "bufferView": 7,
      "componentType": 5126,
      "count": 308448,
      "type": "VEC2"
    },
    {
      "bufferView": 8,
      "componentType": 5126,
      "count": 308448,
      "type": "VEC4"
    },
    {
      "bufferView": 9,
      "componentType": 5125,
      "count": 1079568,
      "type": "SCALAR"
    },
    {
      "bufferView": 10,
      "componentType": 5126,
      "count": 90720,
      "type": "VEC3",
      "min": [
        -1.7500356435775757,
        1.693273901939392,
        -1.7003345489501953
      ],
      "max": [
        1.4442591667175293,
        3.7595388889312744,
        1.5874398946762085
      ]
    },
    {
      "bufferView": 11,
      "componentType": 5126,
      "count": 90720,
      "type": "VEC3",
      "min": [
        -0.9999961256980896,
        -0.9999948740005493,
        -0.9999899864196777
      ],
      "max": [
        0.9999961256980896,
        0.9999948740005493,
        0.9999899864196777
      ]
    },
    {
      "bufferView": 12,
      "componentType": 5126,
      "count": 90720,
      "type": "VEC2"
    },
    {
      "bufferView": 13,
      "componentType": 5126,
      "count": 90720,
      "type": "VEC4"
    },
    {
      "bufferView": 14,
      "componentType": 5125,
      "count": 317520,
      "type": "SCALAR"
    }
  ],
  "bufferViews": [
    {
      "buffer": 0,
      "byteOffset": 0,
      "byteLength": 667404
    },
    {
      "buffer": 0,
      "byteOffset": 667404,
      "byteLength": 667404
    },
    {
      "buffer": 0,
      "byteOffset": 1334808,
      "byteLength": 444936
    },
    {
      "buffer": 0,
      "byteOffset": 1779744,
      "byteLength": 889872
    },
    {
      "buffer": 0,
      "byteOffset": 2669616,
      "byteLength": 998256
    },
    {
      "buffer": 0,
      "byteOffset": 3667872,
      "byteLength": 3701376
    },
    {
      "buffer": 0,
      "byteOffset": 7369248,
      "byteLength": 3701376
    },
    {
      "buffer": 0,
      "byteOffset": 11070624,
      "byteLength": 2467584
    },
    {
      "buffer": 0,
      "byteOffset": 13538208,
      "byteLength": 4935168
    },
    {
      "buffer": 0,
      "byteOffset": 18473376,
      "byteLength": 4318272
    },
    {
      "buffer": 0,
      "byteOffset": 22791648,
      "byteLength": 1088640
    },
    {
      "buffer": 0,
      "byteOffset": 23880288,
      "byteLength": 1088640
    },
    {
      "buffer": 0,
      "byteOffset": 24968928,
      "byteLength": 725760
    },
    {
      "buffer": 0,
      "byteOffset": 25694688,
      "byteLength": 1451520
    },
    {
      "buffer": 0,
      "byteOffset": 27146208,
      "byteLength": 1270080
    }
  ],
  "buffers": [
    {
      "uri": "oak_sapling_lod0.bin",
      "byteLength": 28416288
    }
  ]
}
