{
  "asset": {
    "version": "2.0",
    "generator": "Gameport detailed vegetation"
  },
  "scene": 0,
  "scenes": [
    {
      "nodes": [
        0
      ]
    }
  ],
  "nodes": [
    {
      "mesh": 0,
      "name": "oak_sapling_lod1"
    }
  ],
  "meshes": [
    {
      "name": "oak_sapling_lod1",
      "primitives": [
        {
          "material": 0,
          "attributes": {
            "POSITION": 0,
            "NORMAL": 1,
            "TEXCOORD_0": 2,
            "TANGENT": 3
          },
          "indices": 4
        },
        {
          "material": 1,
          "attributes": {
            "POSITION": 5,
            "NORMAL": 6,
            "TEXCOORD_0": 7,
            "TANGENT": 8
          },
          "indices": 9
        },
        {
          "material": 2,
          "attributes": {
            "POSITION": 10,
            "NORMAL": 11,
            "TEXCOORD_0": 12,
            "TANGENT": 13
          },
          "indices": 14
        }
      ]
    }
  ],
  "materials": [
    {
      "name": "Scanned furrowed bark",
      "pbrMetallicRoughness": {
        "baseColorFactor": [
          1,
          1,
          1,
          1
        ],
        "metallicFactor": 0,
        "roughnessFactor": 1,
        "baseColorTexture": {
          "index": 0
        },
        "metallicRoughnessTexture": {
          "index": 1
        }
      },
      "doubleSided": false,
      "normalTexture": {
        "index": 2,
        "scale": 0.85
      },
      "occlusionTexture": {
        "index": 1
      }
    },
    {
      "name": "Mature broadleaf",
      "pbrMetallicRoughness": {
        "baseColorFactor": [
          1,
          1,
          1,
          1
        ],
        "metallicFactor": 0,
        "roughnessFactor": 1,
        "baseColorTexture": {
          "index": 3
        },
        "metallicRoughnessTexture": {
          "index": 4
        }
      },
      "doubleSided": false,
      "normalTexture": {
        "index": 5,
        "scale": 0.55
      },
      "occlusionTexture": {
        "index": 4
      }
    },
    {
      "name": "Sunlit young broadleaf",
      "pbrMetallicRoughness": {
        "baseColorFactor": [
          1.15,
          1.1,
          0.85,
          1
        ],
        "metallicFactor": 0,
        "roughnessFactor": 1,
        "baseColorTexture": {
          "index": 6
        },
        "metallicRoughnessTexture": {
          "index": 7
        }
      },
      "doubleSided": false,
      "normalTexture": {
        "index": 8,
        "scale": 0.55
      },
      "occlusionTexture": {
        "index": 7
      }
    }
  ],
  "images": [
    {
      "uri": "../textures/broadleaf_bark_albedo.jpg"
    },
    {
      "uri": "../textures/broadleaf_bark_orm.jpg"
    },
    {
      "uri": "../textures/broadleaf_bark_normal.png"
    },
    {
      "uri": "../textures/leaf_albedo.png"
    },
    {
      "uri": "../textures/leaf_orm.png"
    },
    {
      "uri": "../textures/leaf_normal.png"
    },
    {
      "uri": "../textures/leaf_albedo.png"
    },
    {
      "uri": "../textures/leaf_orm.png"
    },
    {
      "uri": "../textures/leaf_normal.png"
    }
  ],
  "textures": [
    {
      "source": 0,
      "sampler": 0
    },
    {
      "source": 1,
      "sampler": 0
    },
    {
      "source": 2,
      "sampler": 0
    },
    {
      "source": 3,
      "sampler": 0
    },
    {
      "source": 4,
      "sampler": 0
    },
    {
      "source": 5,
      "sampler": 0
    },
    {
      "source": 6,
      "sampler": 0
    },
    {
      "source": 7,
      "sampler": 0
    },
    {
      "source": 8,
      "sampler": 0
    }
  ],
  "samplers": [
    {
      "magFilter": 9729,
      "minFilter": 9987,
      "wrapS": 10497,
      "wrapT": 10497
    }
  ],
  "accessors": [
    {
      "bufferView": 0,
      "componentType": 5126,
      "count": 32280,
      "type": "VEC3",
      "min": [
        -1.562890648841858,
        -0.0007441189954988658,
        -1.5559279918670654
      ],
      "max": [
        1.3753939867019653,
        3.76017689704895,
        1.472793459892273
      ]
    },
    {
      "bufferView": 1,
      "componentType": 5126,
      "count": 32280,
      "type": "VEC3",
      "min": [
        -0.9999999403953552,
        -0.9999852776527405,
        -0.9999904036521912
      ],
      "max": [
        0.9999896287918091,
        0.9918843507766724,
        0.9999847412109375
      ]
    },
    {
      "bufferView": 2,
      "componentType": 5126,
      "count": 32280,
      "type": "VEC2"
    },
    {
      "bufferView": 3,
      "componentType": 5126,
      "count": 32280,
      "type": "VEC4"
    },
    {
      "bufferView": 4,
      "componentType": 5125,
      "count": 128574,
      "type": "SCALAR"
    },
    {
      "bufferView": 5,
      "componentType": 5126,
      "count": 64260,
      "type": "VEC3",
      "min": [
        -1.750607967376709,
        1.6756370067596436,
        -1.6860710382461548
      ],
      "max": [
        1.4224189519882202,
        3.8239023685455322,
        1.5738731622695923
      ]
    },
    {
      "bufferView": 6,
      "componentType": 5126,
      "count": 64260,
      "type": "VEC3",
      "min": [
        -0.9999501705169678,
        -0.9999977350234985,
        -0.9999989867210388
      ],
      "max": [
        0.9999501705169678,
        0.9999977350234985,
        0.9999989867210388
      ]
    },
    {
      "bufferView": 7,
      "componentType": 5126,
      "count": 64260,
      "type": "VEC2"
    },
    {
      "bufferView": 8,
      "componentType": 5126,
      "count": 64260,
      "type": "VEC4"
    },
    {
      "bufferView": 9,
      "componentType": 5125,
      "count": 205632,
      "type": "SCALAR"
    },
    {
      "bufferView": 10,
      "componentType": 5126,
      "count": 18900,
      "type": "VEC3",
      "min": [
        -1.6247327327728271,
        1.7419713735580444,
        -1.734800934791565
      ],
      "max": [
        1.4582767486572266,
        3.7692477703094482,
        1.54753839969635
      ]
    },
    {
      "bufferView": 11,
      "componentType": 5126,
      "count": 18900,
      "type": "VEC3",
      "min": [
        -0.9997839331626892,
        -0.9998965859413147,
        -0.9998664259910583
      ],
      "max": [
        0.9997839331626892,
        0.9998965859413147,
        0.9998664259910583
      ]
    },
    {
      "bufferView": 12,
      "componentType": 5126,
      "count": 18900,
      "type": "VEC2"
    },
    {
      "bufferView": 13,
      "componentType": 5126,
      "count": 18900,
      "type": "VEC4"
    },
    {
      "bufferView": 14,
      "componentType": 5125,
      "count": 60480,
      "type": "SCALAR"
    }
  ],
  "bufferViews": [
    {
      "buffer": 0,
      "byteOffset": 0,
      "byteLength": 387360
    },
    {
      "buffer": 0,
      "byteOffset": 387360,
      "byteLength": 387360
    },
    {
      "buffer": 0,
      "byteOffset": 774720,
      "byteLength": 258240
    },
    {
      "buffer": 0,
      "byteOffset": 1032960,
      "byteLength": 516480
    },
    {
      "buffer": 0,
      "byteOffset": 1549440,
      "byteLength": 514296
    },
    {
      "buffer": 0,
      "byteOffset": 2063736,
      "byteLength": 771120
    },
    {
      "buffer": 0,
      "byteOffset": 2834856,
      "byteLength": 771120
    },
    {
      "buffer": 0,
      "byteOffset": 3605976,
      "byteLength": 514080
    },
    {
      "buffer": 0,
      "byteOffset": 4120056,
      "byteLength": 1028160
    },
    {
      "buffer": 0,
      "byteOffset": 5148216,
      "byteLength": 822528
    },
    {
      "buffer": 0,
      "byteOffset": 5970744,
      "byteLength": 226800
    },
    {
      "buffer": 0,
      "byteOffset": 6197544,
      "byteLength": 226800
    },
    {
      "buffer": 0,
      "byteOffset": 6424344,
      "byteLength": 151200
    },
    {
      "buffer": 0,
      "byteOffset": 6575544,
      "byteLength": 302400
    },
    {
      "buffer": 0,
      "byteOffset": 6877944,
      "byteLength": 241920
    }
  ],
  "buffers": [
    {
      "uri": "oak_sapling_lod1.bin",
      "byteLength": 7119864
    }
  ]
}
