{
  "asset": {
    "version": "2.0",
    "generator": "Gameport detailed vegetation"
  },
  "scene": 0,
  "scenes": [
    {
      "nodes": [
        0
      ]
    }
  ],
  "nodes": [
    {
      "mesh": 0,
      "name": "oak_spreading_lod0"
    }
  ],
  "meshes": [
    {
      "name": "oak_spreading_lod0",
      "primitives": [
        {
          "material": 0,
          "attributes": {
            "POSITION": 0,
            "NORMAL": 1,
            "TEXCOORD_0": 2,
            "TANGENT": 3
          },
          "indices": 4
        },
        {
          "material": 1,
          "attributes": {
            "POSITION": 5,
            "NORMAL": 6,
            "TEXCOORD_0": 7,
            "TANGENT": 8
          },
          "indices": 9
        },
        {
          "material": 2,
          "attributes": {
            "POSITION": 10,
            "NORMAL": 11,
            "TEXCOORD_0": 12,
            "TANGENT": 13
          },
          "indices": 14
        }
      ]
    }
  ],
  "materials": [
    {
      "name": "Scanned furrowed bark",
      "pbrMetallicRoughness": {
        "baseColorFactor": [
          1,
          1,
          1,
          1
        ],
        "metallicFactor": 0,
        "roughnessFactor": 1,
        "baseColorTexture": {
          "index": 0
        },
        "metallicRoughnessTexture": {
          "index": 1
        }
      },
      "doubleSided": false,
      "normalTexture": {
        "index": 2,
        "scale": 0.85
      },
      "occlusionTexture": {
        "index": 1
      }
    },
    {
      "name": "Mature broadleaf",
      "pbrMetallicRoughness": {
        "baseColorFactor": [
          1,
          1,
          1,
          1
        ],
        "metallicFactor": 0,
        "roughnessFactor": 1,
        "baseColorTexture": {
          "index": 3
        },
        "metallicRoughnessTexture": {
          "index": 4
        }
      },
      "doubleSided": false,
      "normalTexture": {
        "index": 5,
        "scale": 0.55
      },
      "occlusionTexture": {
        "index": 4
      }
    },
    {
      "name": "Sunlit young broadleaf",
      "pbrMetallicRoughness": {
        "baseColorFactor": [
          1.15,
          1.1,
          0.85,
          1
        ],
        "metallicFactor": 0,
        "roughnessFactor": 1,
        "baseColorTexture": {
          "index": 6
        },
        "metallicRoughnessTexture": {
          "index": 7
        }
      },
      "doubleSided": false,
      "normalTexture": {
        "index": 8,
        "scale": 0.55
      },
      "occlusionTexture": {
        "index": 7
      }
    }
  ],
  "images": [
    {
      "uri": "../textures/broadleaf_bark_albedo.jpg"
    },
    {
      "uri": "../textures/broadleaf_bark_orm.jpg"
    },
    {
      "uri": "../textures/broadleaf_bark_normal.png"
    },
    {
      "uri": "../textures/leaf_albedo.png"
    },
    {
      "uri": "../textures/leaf_orm.png"
    },
    {
      "uri": "../textures/leaf_normal.png"
    },
    {
      "uri": "../textures/leaf_albedo.png"
    },
    {
      "uri": "../textures/leaf_orm.png"
    },
    {
      "uri": "../textures/leaf_normal.png"
    }
  ],
  "textures": [
    {
      "source": 0,
      "sampler": 0
    },
    {
      "source": 1,
      "sampler": 0
    },
    {
      "source": 2,
      "sampler": 0
    },
    {
      "source": 3,
      "sampler": 0
    },
    {
      "source": 4,
      "sampler": 0
    },
    {
      "source": 5,
      "sampler": 0
    },
    {
      "source": 6,
      "sampler": 0
    },
    {
      "source": 7,
      "sampler": 0
    },
    {
      "source": 8,
      "sampler": 0
    }
  ],
  "samplers": [
    {
      "magFilter": 9729,
      "minFilter": 9987,
      "wrapS": 10497,
      "wrapT": 10497
    }
  ],
  "accessors": [
    {
      "bufferView": 0,
      "componentType": 5126,
      "count": 76841,
      "type": "VEC3",
      "min": [
        -4.9813690185546875,
        -0.0003903510223608464,
        -4.491603374481201
      ],
      "max": [
        4.307272434234619,
        8.645163536071777,
        4.620292663574219
      ]
    },
    {
      "bufferView": 1,
      "componentType": 5126,
      "count": 76841,
      "type": "VEC3",
      "min": [
        -0.9999974370002747,
        -1.0,
        -0.999995768070221
      ],
      "max": [
        0.9999784827232361,
        1.0,
        0.9999589920043945
      ]
    },
    {
      "bufferView": 2,
      "componentType": 5126,
      "count": 76841,
      "type": "VEC2"
    },
    {
      "bufferView": 3,
      "componentType": 5126,
      "count": 76841,
      "type": "VEC4"
    },
    {
      "bufferView": 4,
      "componentType": 5125,
      "count": 341388,
      "type": "SCALAR"
    },
    {
      "bufferView": 5,
      "componentType": 5126,
      "count": 445536,
      "type": "VEC3",
      "min": [
        -5.152060031890869,
        3.853295087814331,
        -4.629513740539551
      ],
      "max": [
        4.486457824707031,
        8.712723731994629,
        4.71388053894043
      ]
    },
    {
      "bufferView": 6,
      "componentType": 5126,
      "count": 445536,
      "type": "VEC3",
      "min": [
        -0.9999964833259583,
        -0.999992847442627,
        -0.9999914765357971
      ],
      "max": [
        0.9999964833259583,
        0.999992847442627,
        0.9999914765357971
      ]
    },
    {
      "bufferView": 7,
      "componentType": 5126,
      "count": 445536,
      "type": "VEC2"
    },
    {
      "bufferView": 8,
      "componentType": 5126,
      "count": 445536,
      "type": "VEC4"
    },
    {
      "bufferView": 9,
      "componentType": 5125,
      "count": 1559376,
      "type": "SCALAR"
    },
    {
      "bufferView": 10,
      "componentType": 5126,
      "count": 131040,
      "type": "VEC3",
      "min": [
        -5.115037441253662,
        3.907270908355713,
        -4.552865982055664
      ],
      "max": [
        4.4255876541137695,
        8.764252662658691,
        4.7422261238098145
      ]
    },
    {
      "bufferView": 11,
      "componentType": 5126,
      "count": 131040,
      "type": "VEC3",
      "min": [
        -0.9999911785125732,
        -0.9999783039093018,
        -0.9999655485153198
      ],
      "max": [
        0.9999911785125732,
        0.9999783039093018,
        0.9999655485153198
      ]
    },
    {
      "bufferView": 12,
      "componentType": 5126,
      "count": 131040,
      "type": "VEC2"
    },
    {
      "bufferView": 13,
      "componentType": 5126,
      "count": 131040,
      "type": "VEC4"
    },
    {
      "bufferView": 14,
      "componentType": 5125,
      "count": 458640,
      "type": "SCALAR"
    }
  ],
  "bufferViews": [
    {
      "buffer": 0,
      "byteOffset": 0,
      "byteLength": 922092
    },
    {
      "buffer": 0,
      "byteOffset": 922092,
      "byteLength": 922092
    },
    {
      "buffer": 0,
      "byteOffset": 1844184,
      "byteLength": 614728
    },
    {
      "buffer": 0,
      "byteOffset": 2458912,
      "byteLength": 1229456
    },
    {
      "buffer": 0,
      "byteOffset": 3688368,
      "byteLength": 1365552
    },
    {
      "buffer": 0,
      "byteOffset": 5053920,
      "byteLength": 5346432
    },
    {
      "buffer": 0,
      "byteOffset": 10400352,
      "byteLength": 5346432
    },
    {
      "buffer": 0,
      "byteOffset": 15746784,
      "byteLength": 3564288
    },
    {
      "buffer": 0,
      "byteOffset": 19311072,
      "byteLength": 7128576
    },
    {
      "buffer": 0,
      "byteOffset": 26439648,
      "byteLength": 6237504
    },
    {
      "buffer": 0,
      "byteOffset": 32677152,
      "byteLength": 1572480
    },
    {
      "buffer": 0,
      "byteOffset": 34249632,
      "byteLength": 1572480
    },
    {
      "buffer": 0,
      "byteOffset": 35822112,
      "byteLength": 1048320
    },
    {
      "buffer": 0,
      "byteOffset": 36870432,
      "byteLength": 2096640
    },
    {
      "buffer": 0,
      "byteOffset": 38967072,
      "byteLength": 1834560
    }
  ],
  "buffers": [
    {
      "uri": "oak_spreading_lod0.bin",
      "byteLength": 40801632
    }
  ]
}
