{
  "asset": {
    "version": "2.0",
    "generator": "Gameport detailed vegetation"
  },
  "scene": 0,
  "scenes": [
    {
      "nodes": [
        0
      ]
    }
  ],
  "nodes": [
    {
      "mesh": 0,
      "name": "woodland_shrub_lod0"
    }
  ],
  "meshes": [
    {
      "name": "woodland_shrub_lod0",
      "primitives": [
        {
          "material": 0,
          "attributes": {
            "POSITION": 0,
            "NORMAL": 1,
            "TEXCOORD_0": 2,
            "TANGENT": 3
          },
          "indices": 4
        },
        {
          "material": 1,
          "attributes": {
            "POSITION": 5,
            "NORMAL": 6,
            "TEXCOORD_0": 7,
            "TANGENT": 8
          },
          "indices": 9
        },
        {
          "material": 2,
          "attributes": {
            "POSITION": 10,
            "NORMAL": 11,
            "TEXCOORD_0": 12,
            "TANGENT": 13
          },
          "indices": 14
        }
      ]
    }
  ],
  "materials": [
    {
      "name": "Scanned furrowed bark",
      "pbrMetallicRoughness": {
        "baseColorFactor": [
          1,
          1,
          1,
          1
        ],
        "metallicFactor": 0,
        "roughnessFactor": 1,
        "baseColorTexture": {
          "index": 0
        },
        "metallicRoughnessTexture": {
          "index": 1
        }
      },
      "doubleSided": false,
      "normalTexture": {
        "index": 2,
        "scale": 0.85
      },
      "occlusionTexture": {
        "index": 1
      }
    },
    {
      "name": "Mature broadleaf",
      "pbrMetallicRoughness": {
        "baseColorFactor": [
          1,
          1,
          1,
          1
        ],
        "metallicFactor": 0,
        "roughnessFactor": 1,
        "baseColorTexture": {
          "index": 3
        },
        "metallicRoughnessTexture": {
          "index": 4
        }
      },
      "doubleSided": false,
      "normalTexture": {
        "index": 5,
        "scale": 0.55
      },
      "occlusionTexture": {
        "index": 4
      }
    },
    {
      "name": "Sunlit young broadleaf",
      "pbrMetallicRoughness": {
        "baseColorFactor": [
          1.15,
          1.1,
          0.85,
          1
        ],
        "metallicFactor": 0,
        "roughnessFactor": 1,
        "baseColorTexture": {
          "index": 6
        },
        "metallicRoughnessTexture": {
          "index": 7
        }
      },
      "doubleSided": false,
      "normalTexture": {
        "index": 8,
        "scale": 0.55
      },
      "occlusionTexture": {
        "index": 7
      }
    }
  ],
  "images": [
    {
      "uri": "../textures/broadleaf_bark_albedo.jpg"
    },
    {
      "uri": "../textures/broadleaf_bark_orm.jpg"
    },
    {
      "uri": "../textures/broadleaf_bark_normal.png"
    },
    {
      "uri": "../textures/leaf_albedo.png"
    },
    {
      "uri": "../textures/leaf_orm.png"
    },
    {
      "uri": "../textures/leaf_normal.png"
    },
    {
      "uri": "../textures/leaf_albedo.png"
    },
    {
      "uri": "../textures/leaf_orm.png"
    },
    {
      "uri": "../textures/leaf_normal.png"
    }
  ],
  "textures": [
    {
      "source": 0,
      "sampler": 0
    },
    {
      "source": 1,
      "sampler": 0
    },
    {
      "source": 2,
      "sampler": 0
    },
    {
      "source": 3,
      "sampler": 0
    },
    {
      "source": 4,
      "sampler": 0
    },
    {
      "source": 5,
      "sampler": 0
    },
    {
      "source": 6,
      "sampler": 0
    },
    {
      "source": 7,
      "sampler": 0
    },
    {
      "source": 8,
      "sampler": 0
    }
  ],
  "samplers": [
    {
      "magFilter": 9729,
      "minFilter": 9987,
      "wrapS": 10497,
      "wrapT": 10497
    }
  ],
  "accessors": [
    {
      "bufferView": 0,
      "componentType": 5126,
      "count": 7002,
      "type": "VEC3",
      "min": [
        -0.7119932174682617,
        -0.013003160245716572,
        -0.6459312438964844
      ],
      "max": [
        0.7423301935195923,
        1.1619327068328857,
        0.6681593656539917
      ]
    },
    {
      "bufferView": 1,
      "componentType": 5126,
      "count": 7002,
      "type": "VEC3",
      "min": [
        -0.9994885325431824,
        -0.9539197087287903,
        -0.9999483823776245
      ],
      "max": [
        0.9982552528381348,
        0.9620130062103271,
        0.9999473094940186
      ]
    },
    {
      "bufferView": 2,
      "componentType": 5126,
      "count": 7002,
      "type": "VEC2"
    },
    {
      "bufferView": 3,
      "componentType": 5126,
      "count": 7002,
      "type": "VEC4"
    },
    {
      "bufferView": 4,
      "componentType": 5125,
      "count": 29592,
      "type": "SCALAR"
    },
    {
      "bufferView": 5,
      "componentType": 5126,
      "count": 21168,
      "type": "VEC3",
      "min": [
        -0.7294390797615051,
        0.16998355090618134,
        -0.6511186361312866
      ],
      "max": [
        0.7651335597038269,
        1.0972851514816284,
        0.7541516423225403
      ]
    },
    {
      "bufferView": 6,
      "componentType": 5126,
      "count": 21168,
      "type": "VEC3",
      "min": [
        -0.9996140599250793,
        -0.9999656081199646,
        -0.9998980164527893
      ],
      "max": [
        0.9996140599250793,
        0.9999656081199646,
        0.9998980164527893
      ]
    },
    {
      "bufferView": 7,
      "componentType": 5126,
      "count": 21168,
      "type": "VEC2"
    },
    {
      "bufferView": 8,
      "componentType": 5126,
      "count": 21168,
      "type": "VEC4"
    },
    {
      "bufferView": 9,
      "componentType": 5125,
      "count": 74088,
      "type": "SCALAR"
    },
    {
      "bufferView": 10,
      "componentType": 5126,
      "count": 21168,
      "type": "VEC3",
      "min": [
        -0.7817884683609009,
        0.1869724988937378,
        -0.7243311405181885
      ],
      "max": [
        0.8425660133361816,
        1.107487440109253,
        0.6972954273223877
      ]
    },
    {
      "bufferView": 11,
      "componentType": 5126,
      "count": 21168,
      "type": "VEC3",
      "min": [
        -0.9999481439590454,
        -0.9999523162841797,
        -0.9996733665466309
      ],
      "max": [
        0.9999481439590454,
        0.9999523162841797,
        0.9996733665466309
      ]
    },
    {
      "bufferView": 12,
      "componentType": 5126,
      "count": 21168,
      "type": "VEC2"
    },
    {
      "bufferView": 13,
      "componentType": 5126,
      "count": 21168,
      "type": "VEC4"
    },
    {
      "bufferView": 14,
      "componentType": 5125,
      "count": 74088,
      "type": "SCALAR"
    }
  ],
  "bufferViews": [
    {
      "buffer": 0,
      "byteOffset": 0,
      "byteLength": 84024
    },
    {
      "buffer": 0,
      "byteOffset": 84024,
      "byteLength": 84024
    },
    {
      "buffer": 0,
      "byteOffset": 168048,
      "byteLength": 56016
    },
    {
      "buffer": 0,
      "byteOffset": 224064,
      "byteLength": 112032
    },
    {
      "buffer": 0,
      "byteOffset": 336096,
      "byteLength": 118368
    },
    {
      "buffer": 0,
      "byteOffset": 454464,
      "byteLength": 254016
    },
    {
      "buffer": 0,
      "byteOffset": 708480,
      "byteLength": 254016
    },
    {
      "buffer": 0,
      "byteOffset": 962496,
      "byteLength": 169344
    },
    {
      "buffer": 0,
      "byteOffset": 1131840,
      "byteLength": 338688
    },
    {
      "buffer": 0,
      "byteOffset": 1470528,
      "byteLength": 296352
    },
    {
      "buffer": 0,
      "byteOffset": 1766880,
      "byteLength": 254016
    },
    {
      "buffer": 0,
      "byteOffset": 2020896,
      "byteLength": 254016
    },
    {
      "buffer": 0,
      "byteOffset": 2274912,
      "byteLength": 169344
    },
    {
      "buffer": 0,
      "byteOffset": 2444256,
      "byteLength": 338688
    },
    {
      "buffer": 0,
      "byteOffset": 2782944,
      "byteLength": 296352
    }
  ],
  "buffers": [
    {
      "uri": "woodland_shrub_lod0.bin",
      "byteLength": 3079296
    }
  ]
}
