{
  "asset": {
    "version": "2.0",
    "generator": "Gameport detailed vegetation"
  },
  "scene": 0,
  "scenes": [
    {
      "nodes": [
        0
      ]
    }
  ],
  "nodes": [
    {
      "mesh": 0,
      "name": "woodland_shrub_lod2"
    }
  ],
  "meshes": [
    {
      "name": "woodland_shrub_lod2",
      "primitives": [
        {
          "material": 0,
          "attributes": {
            "POSITION": 0,
            "NORMAL": 1,
            "TEXCOORD_0": 2,
            "TANGENT": 3
          },
          "indices": 4
        },
        {
          "material": 1,
          "attributes": {
            "POSITION": 5,
            "NORMAL": 6,
            "TEXCOORD_0": 7,
            "TANGENT": 8
          },
          "indices": 9
        },
        {
          "material": 2,
          "attributes": {
            "POSITION": 10,
            "NORMAL": 11,
            "TEXCOORD_0": 12,
            "TANGENT": 13
          },
          "indices": 14
        }
      ]
    }
  ],
  "materials": [
    {
      "name": "Scanned furrowed bark",
      "pbrMetallicRoughness": {
        "baseColorFactor": [
          1,
          1,
          1,
          1
        ],
        "metallicFactor": 0,
        "roughnessFactor": 1,
        "baseColorTexture": {
          "index": 0
        },
        "metallicRoughnessTexture": {
          "index": 1
        }
      },
      "doubleSided": false,
      "normalTexture": {
        "index": 2,
        "scale": 0.85
      },
      "occlusionTexture": {
        "index": 1
      }
    },
    {
      "name": "Mature broadleaf",
      "pbrMetallicRoughness": {
        "baseColorFactor": [
          1,
          1,
          1,
          1
        ],
        "metallicFactor": 0,
        "roughnessFactor": 1,
        "baseColorTexture": {
          "index": 3
        },
        "metallicRoughnessTexture": {
          "index": 4
        }
      },
      "doubleSided": false,
      "normalTexture": {
        "index": 5,
        "scale": 0.55
      },
      "occlusionTexture": {
        "index": 4
      }
    },
    {
      "name": "Sunlit young broadleaf",
      "pbrMetallicRoughness": {
        "baseColorFactor": [
          1.15,
          1.1,
          0.85,
          1
        ],
        "metallicFactor": 0,
        "roughnessFactor": 1,
        "baseColorTexture": {
          "index": 6
        },
        "metallicRoughnessTexture": {
          "index": 7
        }
      },
      "doubleSided": false,
      "normalTexture": {
        "index": 8,
        "scale": 0.55
      },
      "occlusionTexture": {
        "index": 7
      }
    }
  ],
  "images": [
    {
      "uri": "../textures/broadleaf_bark_albedo.jpg"
    },
    {
      "uri": "../textures/broadleaf_bark_orm.jpg"
    },
    {
      "uri": "../textures/broadleaf_bark_normal.png"
    },
    {
      "uri": "../textures/leaf_albedo.png"
    },
    {
      "uri": "../textures/leaf_orm.png"
    },
    {
      "uri": "../textures/leaf_normal.png"
    },
    {
      "uri": "../textures/leaf_albedo.png"
    },
    {
      "uri": "../textures/leaf_orm.png"
    },
    {
      "uri": "../textures/leaf_normal.png"
    }
  ],
  "textures": [
    {
      "source": 0,
      "sampler": 0
    },
    {
      "source": 1,
      "sampler": 0
    },
    {
      "source": 2,
      "sampler": 0
    },
    {
      "source": 3,
      "sampler": 0
    },
    {
      "source": 4,
      "sampler": 0
    },
    {
      "source": 5,
      "sampler": 0
    },
    {
      "source": 6,
      "sampler": 0
    },
    {
      "source": 7,
      "sampler": 0
    },
    {
      "source": 8,
      "sampler": 0
    }
  ],
  "samplers": [
    {
      "magFilter": 9729,
      "minFilter": 9987,
      "wrapS": 10497,
      "wrapT": 10497
    }
  ],
  "accessors": [
    {
      "bufferView": 0,
      "componentType": 5126,
      "count": 585,
      "type": "VEC3",
      "min": [
        -0.6294615268707275,
        -0.011338043957948685,
        -0.49549826979637146
      ],
      "max": [
        0.7172313332557678,
        1.1617560386657715,
        0.6391916871070862
      ]
    },
    {
      "bufferView": 1,
      "componentType": 5126,
      "count": 585,
      "type": "VEC3",
      "min": [
        -0.9952188730239868,
        -0.847998321056366,
        -0.9999414682388306
      ],
      "max": [
        0.9971094131469727,
        0.847998321056366,
        0.9999304413795471
      ]
    },
    {
      "bufferView": 2,
      "componentType": 5126,
      "count": 585,
      "type": "VEC2"
    },
    {
      "bufferView": 3,
      "componentType": 5126,
      "count": 585,
      "type": "VEC4"
    },
    {
      "bufferView": 4,
      "componentType": 5125,
      "count": 2268,
      "type": "SCALAR"
    },
    {
      "bufferView": 5,
      "componentType": 5126,
      "count": 1176,
      "type": "VEC3",
      "min": [
        -0.7203866839408875,
        0.20643743872642517,
        -0.5319132208824158
      ],
      "max": [
        0.7343971133232117,
        1.1242797374725342,
        0.7267199158668518
      ]
    },
    {
      "bufferView": 6,
      "componentType": 5126,
      "count": 1176,
      "type": "VEC3",
      "min": [
        -0.9942210912704468,
        -0.9994641542434692,
        -0.9996244311332703
      ],
      "max": [
        0.9942210912704468,
        0.9994641542434692,
        0.9996244311332703
      ]
    },
    {
      "bufferView": 7,
      "componentType": 5126,
      "count": 1176,
      "type": "VEC2"
    },
    {
      "bufferView": 8,
      "componentType": 5126,
      "count": 1176,
      "type": "VEC4"
    },
    {
      "bufferView": 9,
      "componentType": 5125,
      "count": 3528,
      "type": "SCALAR"
    },
    {
      "bufferView": 10,
      "componentType": 5126,
      "count": 1176,
      "type": "VEC3",
      "min": [
        -0.7368552088737488,
        0.18110783398151398,
        -0.7677258849143982
      ],
      "max": [
        0.8832532167434692,
        1.0845211744308472,
        0.7348697781562805
      ]
    },
    {
      "bufferView": 11,
      "componentType": 5126,
      "count": 1176,
      "type": "VEC3",
      "min": [
        -0.9983937740325928,
        -0.9984546899795532,
        -0.9985193014144897
      ],
      "max": [
        0.9983937740325928,
        0.9984546899795532,
        0.9985193014144897
      ]
    },
    {
      "bufferView": 12,
      "componentType": 5126,
      "count": 1176,
      "type": "VEC2"
    },
    {
      "bufferView": 13,
      "componentType": 5126,
      "count": 1176,
      "type": "VEC4"
    },
    {
      "bufferView": 14,
      "componentType": 5125,
      "count": 3528,
      "type": "SCALAR"
    }
  ],
  "bufferViews": [
    {
      "buffer": 0,
      "byteOffset": 0,
      "byteLength": 7020
    },
    {
      "buffer": 0,
      "byteOffset": 7020,
      "byteLength": 7020
    },
    {
      "buffer": 0,
      "byteOffset": 14040,
      "byteLength": 4680
    },
    {
      "buffer": 0,
      "byteOffset": 18720,
      "byteLength": 9360
    },
    {
      "buffer": 0,
      "byteOffset": 28080,
      "byteLength": 9072
    },
    {
      "buffer": 0,
      "byteOffset": 37152,
      "byteLength": 14112
    },
    {
      "buffer": 0,
      "byteOffset": 51264,
      "byteLength": 14112
    },
    {
      "buffer": 0,
      "byteOffset": 65376,
      "byteLength": 9408
    },
    {
      "buffer": 0,
      "byteOffset": 74784,
      "byteLength": 18816
    },
    {
      "buffer": 0,
      "byteOffset": 93600,
      "byteLength": 14112
    },
    {
      "buffer": 0,
      "byteOffset": 107712,
      "byteLength": 14112
    },
    {
      "buffer": 0,
      "byteOffset": 121824,
      "byteLength": 14112
    },
    {
      "buffer": 0,
      "byteOffset": 135936,
      "byteLength": 9408
    },
    {
      "buffer": 0,
      "byteOffset": 145344,
      "byteLength": 18816
    },
    {
      "buffer": 0,
      "byteOffset": 164160,
      "byteLength": 14112
    }
  ],
  "buffers": [
    {
      "uri": "woodland_shrub_lod2.bin",
      "byteLength": 178272
    }
  ]
}
