{
  "asset": {
    "version": "2.0",
    "generator": "Gameport detailed vegetation"
  },
  "scene": 0,
  "scenes": [
    {
      "nodes": [
        0
      ]
    }
  ],
  "nodes": [
    {
      "mesh": 0,
      "name": "woodland_shrub_lod1"
    }
  ],
  "meshes": [
    {
      "name": "woodland_shrub_lod1",
      "primitives": [
        {
          "material": 0,
          "attributes": {
            "POSITION": 0,
            "NORMAL": 1,
            "TEXCOORD_0": 2,
            "TANGENT": 3
          },
          "indices": 4
        },
        {
          "material": 1,
          "attributes": {
            "POSITION": 5,
            "NORMAL": 6,
            "TEXCOORD_0": 7,
            "TANGENT": 8
          },
          "indices": 9
        },
        {
          "material": 2,
          "attributes": {
            "POSITION": 10,
            "NORMAL": 11,
            "TEXCOORD_0": 12,
            "TANGENT": 13
          },
          "indices": 14
        }
      ]
    }
  ],
  "materials": [
    {
      "name": "Scanned furrowed bark",
      "pbrMetallicRoughness": {
        "baseColorFactor": [
          1,
          1,
          1,
          1
        ],
        "metallicFactor": 0,
        "roughnessFactor": 1,
        "baseColorTexture": {
          "index": 0
        },
        "metallicRoughnessTexture": {
          "index": 1
        }
      },
      "doubleSided": false,
      "normalTexture": {
        "index": 2,
        "scale": 0.85
      },
      "occlusionTexture": {
        "index": 1
      }
    },
    {
      "name": "Mature broadleaf",
      "pbrMetallicRoughness": {
        "baseColorFactor": [
          1,
          1,
          1,
          1
        ],
        "metallicFactor": 0,
        "roughnessFactor": 1,
        "baseColorTexture": {
          "index": 3
        },
        "metallicRoughnessTexture": {
          "index": 4
        }
      },
      "doubleSided": false,
      "normalTexture": {
        "index": 5,
        "scale": 0.55
      },
      "occlusionTexture": {
        "index": 4
      }
    },
    {
      "name": "Sunlit young broadleaf",
      "pbrMetallicRoughness": {
        "baseColorFactor": [
          1.15,
          1.1,
          0.85,
          1
        ],
        "metallicFactor": 0,
        "roughnessFactor": 1,
        "baseColorTexture": {
          "index": 6
        },
        "metallicRoughnessTexture": {
          "index": 7
        }
      },
      "doubleSided": false,
      "normalTexture": {
        "index": 8,
        "scale": 0.55
      },
      "occlusionTexture": {
        "index": 7
      }
    }
  ],
  "images": [
    {
      "uri": "../textures/broadleaf_bark_albedo.jpg"
    },
    {
      "uri": "../textures/broadleaf_bark_orm.jpg"
    },
    {
      "uri": "../textures/broadleaf_bark_normal.png"
    },
    {
      "uri": "../textures/leaf_albedo.png"
    },
    {
      "uri": "../textures/leaf_orm.png"
    },
    {
      "uri": "../textures/leaf_normal.png"
    },
    {
      "uri": "../textures/leaf_albedo.png"
    },
    {
      "uri": "../textures/leaf_orm.png"
    },
    {
      "uri": "../textures/leaf_normal.png"
    }
  ],
  "textures": [
    {
      "source": 0,
      "sampler": 0
    },
    {
      "source": 1,
      "sampler": 0
    },
    {
      "source": 2,
      "sampler": 0
    },
    {
      "source": 3,
      "sampler": 0
    },
    {
      "source": 4,
      "sampler": 0
    },
    {
      "source": 5,
      "sampler": 0
    },
    {
      "source": 6,
      "sampler": 0
    },
    {
      "source": 7,
      "sampler": 0
    },
    {
      "source": 8,
      "sampler": 0
    }
  ],
  "samplers": [
    {
      "magFilter": 9729,
      "minFilter": 9987,
      "wrapS": 10497,
      "wrapT": 10497
    }
  ],
  "accessors": [
    {
      "bufferView": 0,
      "componentType": 5126,
      "count": 4680,
      "type": "VEC3",
      "min": [
        -0.7119753956794739,
        -0.011338043957948685,
        -0.6459158658981323
      ],
      "max": [
        0.7423301935195923,
        1.1617560386657715,
        0.6681593656539917
      ]
    },
    {
      "bufferView": 1,
      "componentType": 5126,
      "count": 4680,
      "type": "VEC3",
      "min": [
        -0.9994885325431824,
        -0.847998321056366,
        -0.9999414682388306
      ],
      "max": [
        0.9982552528381348,
        0.847998321056366,
        0.9999304413795471
      ]
    },
    {
      "bufferView": 2,
      "componentType": 5126,
      "count": 4680,
      "type": "VEC2"
    },
    {
      "bufferView": 3,
      "componentType": 5126,
      "count": 4680,
      "type": "VEC4"
    },
    {
      "bufferView": 4,
      "componentType": 5125,
      "count": 18144,
      "type": "SCALAR"
    },
    {
      "bufferView": 5,
      "componentType": 5126,
      "count": 4410,
      "type": "VEC3",
      "min": [
        -0.7474285960197449,
        0.16533902287483215,
        -0.6157453656196594
      ],
      "max": [
        0.7599060535430908,
        1.1061266660690308,
        0.7416231036186218
      ]
    },
    {
      "bufferView": 6,
      "componentType": 5126,
      "count": 4410,
      "type": "VEC3",
      "min": [
        -0.9984219074249268,
        -0.9996911883354187,
        -0.9992337822914124
      ],
      "max": [
        0.9984219074249268,
        0.9996911883354187,
        0.9992337822914124
      ]
    },
    {
      "bufferView": 7,
      "componentType": 5126,
      "count": 4410,
      "type": "VEC2"
    },
    {
      "bufferView": 8,
      "componentType": 5126,
      "count": 4410,
      "type": "VEC4"
    },
    {
      "bufferView": 9,
      "componentType": 5125,
      "count": 14112,
      "type": "SCALAR"
    },
    {
      "bufferView": 10,
      "componentType": 5126,
      "count": 4410,
      "type": "VEC3",
      "min": [
        -0.7944228649139404,
        0.18609368801116943,
        -0.7385359406471252
      ],
      "max": [
        0.8444991111755371,
        1.1173923015594482,
        0.7150116562843323
      ]
    },
    {
      "bufferView": 11,
      "componentType": 5126,
      "count": 4410,
      "type": "VEC3",
      "min": [
        -0.9990612268447876,
        -0.9999479055404663,
        -0.9985760450363159
      ],
      "max": [
        0.9990612268447876,
        0.9999479055404663,
        0.9985760450363159
      ]
    },
    {
      "bufferView": 12,
      "componentType": 5126,
      "count": 4410,
      "type": "VEC2"
    },
    {
      "bufferView": 13,
      "componentType": 5126,
      "count": 4410,
      "type": "VEC4"
    },
    {
      "bufferView": 14,
      "componentType": 5125,
      "count": 14112,
      "type": "SCALAR"
    }
  ],
  "bufferViews": [
    {
      "buffer": 0,
      "byteOffset": 0,
      "byteLength": 56160
    },
    {
      "buffer": 0,
      "byteOffset": 56160,
      "byteLength": 56160
    },
    {
      "buffer": 0,
      "byteOffset": 112320,
      "byteLength": 37440
    },
    {
      "buffer": 0,
      "byteOffset": 149760,
      "byteLength": 74880
    },
    {
      "buffer": 0,
      "byteOffset": 224640,
      "byteLength": 72576
    },
    {
      "buffer": 0,
      "byteOffset": 297216,
      "byteLength": 52920
    },
    {
      "buffer": 0,
      "byteOffset": 350136,
      "byteLength": 52920
    },
    {
      "buffer": 0,
      "byteOffset": 403056,
      "byteLength": 35280
    },
    {
      "buffer": 0,
      "byteOffset": 438336,
      "byteLength": 70560
    },
    {
      "buffer": 0,
      "byteOffset": 508896,
      "byteLength": 56448
    },
    {
      "buffer": 0,
      "byteOffset": 565344,
      "byteLength": 52920
    },
    {
      "buffer": 0,
      "byteOffset": 618264,
      "byteLength": 52920
    },
    {
      "buffer": 0,
      "byteOffset": 671184,
      "byteLength": 35280
    },
    {
      "buffer": 0,
      "byteOffset": 706464,
      "byteLength": 70560
    },
    {
      "buffer": 0,
      "byteOffset": 777024,
      "byteLength": 56448
    }
  ],
  "buffers": [
    {
      "uri": "woodland_shrub_lod1.bin",
      "byteLength": 833472
    }
  ]
}
