{
	"asset":{
		"generator":"Khronos glTF Blender I/O v5.2.40",
		"version":"2.0"
	},
	"scene":0,
	"scenes":[
		{
			"name":"Scene",
			"nodes":[
				0
			]
		}
	],
	"nodes":[
		{
			"mesh":0,
			"name":"Praying monk | static runtime",
			"translation":[
				0,
				0.0208742618560791,
				0
			]
		}
	],
	"materials":[
		{
			"doubleSided":true,
			"name":"Cloak | weathered umber wool",
			"normalTexture":{
				"index":0,
				"scale":0.23999999463558197
			},
			"pbrMetallicRoughness":{
				"baseColorFactor":[
					0.11500000208616257,
					0.07900000363588333,
					0.052000001072883606,
					1
				],
				"metallicFactor":0,
				"roughnessFactor":0.9399999976158142
			}
		},
		{
			"doubleSided":true,
			"name":"Hands | aged warm skin",
			"pbrMetallicRoughness":{
				"baseColorFactor":[
					0.38999998569488525,
					0.26499998569488525,
					0.18000000715255737,
					1
				],
				"metallicFactor":0,
				"roughnessFactor":0.7799999713897705
			}
		},
		{
			"doubleSided":true,
			"name":"Hems | worn warm brown",
			"normalTexture":{
				"index":1,
				"scale":0.23999999463558197
			},
			"pbrMetallicRoughness":{
				"baseColorFactor":[
					0.1899999976158142,
					0.13600000739097595,
					0.08799999952316284,
					1
				],
				"metallicFactor":0,
				"roughnessFactor":0.9599999785423279
			}
		},
		{
			"doubleSided":true,
			"name":"Hood lining | deep charcoal",
			"pbrMetallicRoughness":{
				"baseColorFactor":[
					0.003000000026077032,
					0.0024999999441206455,
					0.0020000000949949026,
					1
				],
				"metallicFactor":0
			}
		},
		{
			"doubleSided":true,
			"name":"Nails | muted horn",
			"pbrMetallicRoughness":{
				"baseColorFactor":[
					0.41999998688697815,
					0.33000001311302185,
					0.25,
					1
				],
				"metallicFactor":0,
				"roughnessFactor":0.75
			}
		},
		{
			"doubleSided":true,
			"name":"Beard | silver 00",
			"pbrMetallicRoughness":{
				"baseColorFactor":[
					0.41760000586509705,
					0.3959999978542328,
					0.3384000062942505,
					1
				],
				"metallicFactor":0,
				"roughnessFactor":0.9399999976158142
			}
		},
		{
			"doubleSided":true,
			"name":"Beard | silver 02",
			"pbrMetallicRoughness":{
				"baseColorFactor":[
					0.4814000129699707,
					0.45649999380111694,
					0.39010000228881836,
					1
				],
				"metallicFactor":0,
				"roughnessFactor":0.9399999976158142
			}
		},
		{
			"doubleSided":true,
			"name":"Beard | silver 03",
			"pbrMetallicRoughness":{
				"baseColorFactor":[
					0.5133000016212463,
					0.4867500066757202,
					0.4159500002861023,
					1
				],
				"metallicFactor":0,
				"roughnessFactor":0.9399999976158142
			}
		},
		{
			"doubleSided":true,
			"name":"Beard | silver 01",
			"pbrMetallicRoughness":{
				"baseColorFactor":[
					0.4494999945163727,
					0.42625001072883606,
					0.3642500042915344,
					1
				],
				"metallicFactor":0,
				"roughnessFactor":0.9399999976158142
			}
		},
		{
			"doubleSided":true,
			"name":"Beard | silver 04",
			"pbrMetallicRoughness":{
				"baseColorFactor":[
					0.545199990272522,
					0.5170000195503235,
					0.44179999828338623,
					1
				],
				"metallicFactor":0,
				"roughnessFactor":0.9399999976158142
			}
		},
		{
			"doubleSided":true,
			"name":"Beard | silver 05",
			"pbrMetallicRoughness":{
				"baseColorFactor":[
					0.5770999789237976,
					0.547249972820282,
					0.46764999628067017,
					1
				],
				"metallicFactor":0,
				"roughnessFactor":0.9399999976158142
			}
		},
		{
			"doubleSided":true,
			"name":"Beard | silver 06",
			"pbrMetallicRoughness":{
				"baseColorFactor":[
					0.609000027179718,
					0.5774999856948853,
					0.4934999942779541,
					1
				],
				"metallicFactor":0,
				"roughnessFactor":0.9399999976158142
			}
		}
	],
	"meshes":[
		{
			"name":"Folded leg -1 closed.001",
			"primitives":[
				{
					"attributes":{
						"POSITION":0,
						"NORMAL":1,
						"TEXCOORD_0":2
					},
					"indices":3,
					"material":0
				},
				{
					"attributes":{
						"POSITION":4,
						"NORMAL":5,
						"TEXCOORD_0":6
					},
					"indices":7,
					"material":1
				},
				{
					"attributes":{
						"POSITION":8,
						"NORMAL":9,
						"TEXCOORD_0":10
					},
					"indices":11,
					"material":2
				},
				{
					"attributes":{
						"POSITION":12,
						"NORMAL":13,
						"TEXCOORD_0":14
					},
					"indices":15,
					"material":3
				},
				{
					"attributes":{
						"POSITION":16,
						"NORMAL":17,
						"TEXCOORD_0":18
					},
					"indices":19,
					"material":4
				},
				{
					"attributes":{
						"POSITION":20,
						"NORMAL":21,
						"TEXCOORD_0":22
					},
					"indices":23,
					"material":5
				},
				{
					"attributes":{
						"POSITION":24,
						"NORMAL":25,
						"TEXCOORD_0":26
					},
					"indices":27,
					"material":6
				},
				{
					"attributes":{
						"POSITION":28,
						"NORMAL":29,
						"TEXCOORD_0":30
					},
					"indices":31,
					"material":7
				},
				{
					"attributes":{
						"POSITION":32,
						"NORMAL":33,
						"TEXCOORD_0":34
					},
					"indices":35,
					"material":8
				},
				{
					"attributes":{
						"POSITION":36,
						"NORMAL":37,
						"TEXCOORD_0":38
					},
					"indices":39,
					"material":9
				},
				{
					"attributes":{
						"POSITION":40,
						"NORMAL":41,
						"TEXCOORD_0":42
					},
					"indices":43,
					"material":10
				},
				{
					"attributes":{
						"POSITION":44,
						"NORMAL":45,
						"TEXCOORD_0":46
					},
					"indices":47,
					"material":11
				}
			]
		}
	],
	"textures":[
		{
			"sampler":0,
			"source":0
		},
		{
			"sampler":0,
			"source":0
		}
	],
	"images":[
		{
			"mimeType":"image/png",
			"name":"cloth_normal",
			"uri":"cloth_normal.png"
		}
	],
	"accessors":[
		{
			"bufferView":0,
			"componentType":5126,
			"count":27134,
			"max":[
				0.6060683131217957,
				1.4429999589920044,
				0.49849992990493774
			],
			"min":[
				-0.6084012985229492,
				-0.0208742618560791,
				-0.41775238513946533
			],
			"type":"VEC3"
		},
		{
			"bufferView":1,
			"componentType":5126,
			"count":27134,
			"type":"VEC3"
		},
		{
			"bufferView":2,
			"componentType":5126,
			"count":27134,
			"type":"VEC2"
		},
		{
			"bufferView":3,
			"componentType":5123,
			"count":137832,
			"type":"SCALAR"
		},
		{
			"bufferView":4,
			"componentType":5126,
			"count":7670,
			"max":[
				0.4189999997615814,
				1.0020712614059448,
				0.5474751591682434
			],
			"min":[
				-0.4189999997615814,
				0.03299999237060547,
				0.3330000936985016
			],
			"type":"VEC3"
		},
		{
			"bufferView":5,
			"componentType":5126,
			"count":7670,
			"type":"VEC3"
		},
		{
			"bufferView":6,
			"componentType":5126,
			"count":7670,
			"type":"VEC2"
		},
		{
			"bufferView":7,
			"componentType":5123,
			"count":33984,
			"type":"SCALAR"
		},
		{
			"bufferView":8,
			"componentType":5126,
			"count":10524,
			"max":[
				0.5860521793365479,
				1.4549671411514282,
				0.5066545009613037
			],
			"min":[
				-0.5711449980735779,
				0.027105871587991714,
				-0.42700469493865967
			],
			"type":"VEC3"
		},
		{
			"bufferView":9,
			"componentType":5126,
			"count":10524,
			"type":"VEC3"
		},
		{
			"bufferView":10,
			"componentType":5126,
			"count":10524,
			"type":"VEC2"
		},
		{
			"bufferView":11,
			"componentType":5123,
			"count":40896,
			"type":"SCALAR"
		},
		{
			"bufferView":12,
			"componentType":5126,
			"count":4460,
			"max":[
				0.23270384967327118,
				1.4282399415969849,
				0.31937500834465027
			],
			"min":[
				-0.24710625410079956,
				0.8017600178718567,
				-0.26317501068115234
			],
			"type":"VEC3"
		},
		{
			"bufferView":13,
			"componentType":5126,
			"count":4460,
			"type":"VEC3"
		},
		{
			"bufferView":14,
			"componentType":5126,
			"count":4460,
			"type":"VEC2"
		},
		{
			"bufferView":15,
			"componentType":5123,
			"count":23808,
			"type":"SCALAR"
		},
		{
			"bufferView":16,
			"componentType":5126,
			"count":1136,
			"max":[
				0.027000000700354576,
				1.0010000467300415,
				0.5140000581741333
			],
			"min":[
				-0.027000000700354576,
				0.9469999670982361,
				0.421999990940094
			],
			"type":"VEC3"
		},
		{
			"bufferView":17,
			"componentType":5126,
			"count":1136,
			"type":"VEC3"
		},
		{
			"bufferView":18,
			"componentType":5126,
			"count":1136,
			"type":"VEC2"
		},
		{
			"bufferView":19,
			"componentType":5123,
			"count":4032,
			"type":"SCALAR"
		},
		{
			"bufferView":20,
			"componentType":5126,
			"count":8430,
			"max":[
				0.14357268810272217,
				1.2159384489059448,
				0.6538709402084351
			],
			"min":[
				-0.16257965564727783,
				-0.012709434144198895,
				-0.12258929759263992
			],
			"type":"VEC3"
		},
		{
			"bufferView":21,
			"componentType":5126,
			"count":8430,
			"type":"VEC3"
		},
		{
			"bufferView":22,
			"componentType":5126,
			"count":8430,
			"type":"VEC2"
		},
		{
			"bufferView":23,
			"componentType":5123,
			"count":29022,
			"type":"SCALAR"
		},
		{
			"bufferView":24,
			"componentType":5126,
			"count":8189,
			"max":[
				0.15004049241542816,
				1.2159008979797363,
				0.6555533409118652
			],
			"min":[
				-0.15421098470687866,
				-0.019524557515978813,
				-0.12244699150323868
			],
			"type":"VEC3"
		},
		{
			"bufferView":25,
			"componentType":5126,
			"count":8189,
			"type":"VEC3"
		},
		{
			"bufferView":26,
			"componentType":5126,
			"count":8189,
			"type":"VEC2"
		},
		{
			"bufferView":27,
			"componentType":5123,
			"count":27612,
			"type":"SCALAR"
		},
		{
			"bufferView":28,
			"componentType":5126,
			"count":8216,
			"max":[
				0.14051569998264313,
				1.215802550315857,
				0.6571418046951294
			],
			"min":[
				-0.14521098136901855,
				-0.01981118693947792,
				-0.12247950583696365
			],
			"type":"VEC3"
		},
		{
			"bufferView":29,
			"componentType":5126,
			"count":8216,
			"type":"VEC3"
		},
		{
			"bufferView":30,
			"componentType":5126,
			"count":8216,
			"type":"VEC2"
		},
		{
			"bufferView":31,
			"componentType":5123,
			"count":27612,
			"type":"SCALAR"
		},
		{
			"bufferView":32,
			"componentType":5126,
			"count":7824,
			"max":[
				0.14104048907756805,
				1.2159194946289062,
				0.652040421962738
			],
			"min":[
				-0.14162249863147736,
				-0.019925810396671295,
				-0.12252292037010193
			],
			"type":"VEC3"
		},
		{
			"bufferView":33,
			"componentType":5126,
			"count":7824,
			"type":"VEC3"
		},
		{
			"bufferView":34,
			"componentType":5126,
			"count":7824,
			"type":"VEC2"
		},
		{
			"bufferView":35,
			"componentType":5123,
			"count":26604,
			"type":"SCALAR"
		},
		{
			"bufferView":36,
			"componentType":5126,
			"count":7856,
			"max":[
				0.13946273922920227,
				1.2158149480819702,
				0.6571418046951294
			],
			"min":[
				-0.12902924418449402,
				-0.01981118693947792,
				-0.12248609960079193
			],
			"type":"VEC3"
		},
		{
			"bufferView":37,
			"componentType":5126,
			"count":7856,
			"type":"VEC3"
		},
		{
			"bufferView":38,
			"componentType":5126,
			"count":7856,
			"type":"VEC2"
		},
		{
			"bufferView":39,
			"componentType":5123,
			"count":26604,
			"type":"SCALAR"
		},
		{
			"bufferView":40,
			"componentType":5126,
			"count":7862,
			"max":[
				0.13236002624034882,
				1.2158032655715942,
				0.6570513844490051
			],
			"min":[
				-0.1266859471797943,
				-0.019412782043218613,
				-0.12242266535758972
			],
			"type":"VEC3"
		},
		{
			"bufferView":41,
			"componentType":5126,
			"count":7862,
			"type":"VEC3"
		},
		{
			"bufferView":42,
			"componentType":5126,
			"count":7862,
			"type":"VEC2"
		},
		{
			"bufferView":43,
			"componentType":5123,
			"count":26604,
			"type":"SCALAR"
		},
		{
			"bufferView":44,
			"componentType":5126,
			"count":7850,
			"max":[
				0.15826645493507385,
				1.2158284187316895,
				0.655456006526947
			],
			"min":[
				-0.1250952184200287,
				-0.012219153344631195,
				-0.12251701951026917
			],
			"type":"VEC3"
		},
		{
			"bufferView":45,
			"componentType":5126,
			"count":7850,
			"type":"VEC3"
		},
		{
			"bufferView":46,
			"componentType":5126,
			"count":7850,
			"type":"VEC2"
		},
		{
			"bufferView":47,
			"componentType":5123,
			"count":26604,
			"type":"SCALAR"
		}
	],
	"bufferViews":[
		{
			"buffer":0,
			"byteLength":325608,
			"byteOffset":0,
			"target":34962
		},
		{
			"buffer":0,
			"byteLength":325608,
			"byteOffset":325608,
			"target":34962
		},
		{
			"buffer":0,
			"byteLength":217072,
			"byteOffset":651216,
			"target":34962
		},
		{
			"buffer":0,
			"byteLength":275664,
			"byteOffset":868288,
			"target":34963
		},
		{
			"buffer":0,
			"byteLength":92040,
			"byteOffset":1143952,
			"target":34962
		},
		{
			"buffer":0,
			"byteLength":92040,
			"byteOffset":1235992,
			"target":34962
		},
		{
			"buffer":0,
			"byteLength":61360,
			"byteOffset":1328032,
			"target":34962
		},
		{
			"buffer":0,
			"byteLength":67968,
			"byteOffset":1389392,
			"target":34963
		},
		{
			"buffer":0,
			"byteLength":126288,
			"byteOffset":1457360,
			"target":34962
		},
		{
			"buffer":0,
			"byteLength":126288,
			"byteOffset":1583648,
			"target":34962
		},
		{
			"buffer":0,
			"byteLength":84192,
			"byteOffset":1709936,
			"target":34962
		},
		{
			"buffer":0,
			"byteLength":81792,
			"byteOffset":1794128,
			"target":34963
		},
		{
			"buffer":0,
			"byteLength":53520,
			"byteOffset":1875920,
			"target":34962
		},
		{
			"buffer":0,
			"byteLength":53520,
			"byteOffset":1929440,
			"target":34962
		},
		{
			"buffer":0,
			"byteLength":35680,
			"byteOffset":1982960,
			"target":34962
		},
		{
			"buffer":0,
			"byteLength":47616,
			"byteOffset":2018640,
			"target":34963
		},
		{
			"buffer":0,
			"byteLength":13632,
			"byteOffset":2066256,
			"target":34962
		},
		{
			"buffer":0,
			"byteLength":13632,
			"byteOffset":2079888,
			"target":34962
		},
		{
			"buffer":0,
			"byteLength":9088,
			"byteOffset":2093520,
			"target":34962
		},
		{
			"buffer":0,
			"byteLength":8064,
			"byteOffset":2102608,
			"target":34963
		},
		{
			"buffer":0,
			"byteLength":101160,
			"byteOffset":2110672,
			"target":34962
		},
		{
			"buffer":0,
			"byteLength":101160,
			"byteOffset":2211832,
			"target":34962
		},
		{
			"buffer":0,
			"byteLength":67440,
			"byteOffset":2312992,
			"target":34962
		},
		{
			"buffer":0,
			"byteLength":58044,
			"byteOffset":2380432,
			"target":34963
		},
		{
			"buffer":0,
			"byteLength":98268,
			"byteOffset":2438476,
			"target":34962
		},
		{
			"buffer":0,
			"byteLength":98268,
			"byteOffset":2536744,
			"target":34962
		},
		{
			"buffer":0,
			"byteLength":65512,
			"byteOffset":2635012,
			"target":34962
		},
		{
			"buffer":0,
			"byteLength":55224,
			"byteOffset":2700524,
			"target":34963
		},
		{
			"buffer":0,
			"byteLength":98592,
			"byteOffset":2755748,
			"target":34962
		},
		{
			"buffer":0,
			"byteLength":98592,
			"byteOffset":2854340,
			"target":34962
		},
		{
			"buffer":0,
			"byteLength":65728,
			"byteOffset":2952932,
			"target":34962
		},
		{
			"buffer":0,
			"byteLength":55224,
			"byteOffset":3018660,
			"target":34963
		},
		{
			"buffer":0,
			"byteLength":93888,
			"byteOffset":3073884,
			"target":34962
		},
		{
			"buffer":0,
			"byteLength":93888,
			"byteOffset":3167772,
			"target":34962
		},
		{
			"buffer":0,
			"byteLength":62592,
			"byteOffset":3261660,
			"target":34962
		},
		{
			"buffer":0,
			"byteLength":53208,
			"byteOffset":3324252,
			"target":34963
		},
		{
			"buffer":0,
			"byteLength":94272,
			"byteOffset":3377460,
			"target":34962
		},
		{
			"buffer":0,
			"byteLength":94272,
			"byteOffset":3471732,
			"target":34962
		},
		{
			"buffer":0,
			"byteLength":62848,
			"byteOffset":3566004,
			"target":34962
		},
		{
			"buffer":0,
			"byteLength":53208,
			"byteOffset":3628852,
			"target":34963
		},
		{
			"buffer":0,
			"byteLength":94344,
			"byteOffset":3682060,
			"target":34962
		},
		{
			"buffer":0,
			"byteLength":94344,
			"byteOffset":3776404,
			"target":34962
		},
		{
			"buffer":0,
			"byteLength":62896,
			"byteOffset":3870748,
			"target":34962
		},
		{
			"buffer":0,
			"byteLength":53208,
			"byteOffset":3933644,
			"target":34963
		},
		{
			"buffer":0,
			"byteLength":94200,
			"byteOffset":3986852,
			"target":34962
		},
		{
			"buffer":0,
			"byteLength":94200,
			"byteOffset":4081052,
			"target":34962
		},
		{
			"buffer":0,
			"byteLength":62800,
			"byteOffset":4175252,
			"target":34962
		},
		{
			"buffer":0,
			"byteLength":53208,
			"byteOffset":4238052,
			"target":34963
		}
	],
	"samplers":[
		{
			"magFilter":9729,
			"minFilter":9987
		}
	],
	"buffers":[
		{
			"byteLength":4291260,
			"uri":"praying_monk.bin"
		}
	]
}
